<?xml version="1.0" encoding="UTF-8"?>
<!DOCTYPE svg PUBLIC "-//W3C//DTD SVG 1.1//EN" "http://www.w3.org/Graphics/SVG/1.1/DTD/svg11.dtd">
<!-- Creator: CorelDRAW X6 -->
<svg xmlns="http://www.w3.org/2000/svg" xml:space="preserve" width="6.47222in" height="2.47222in" version="1.1" style="shape-rendering:geometricPrecision; text-rendering:geometricPrecision; image-rendering:optimizeQuality; fill-rule:evenodd; clip-rule:evenodd"
viewBox="0 0 6472 2472"
 xmlns:xlink="http://www.w3.org/1999/xlink">
 <defs>
  <style type="text/css">
   <![CDATA[
    .fil5 {fill:#2C5342;fill-rule:nonzero}
    .fil3 {fill:#456966;fill-rule:nonzero}
    .fil12 {fill:#7295CC;fill-rule:nonzero}
    .fil10 {fill:#75D1F6;fill-rule:nonzero}
    .fil2 {fill:#7F9CA5;fill-rule:nonzero}
    .fil11 {fill:#82C56E;fill-rule:nonzero}
    .fil7 {fill:#B29F77;fill-rule:nonzero}
    .fil4 {fill:#B6E3F4;fill-rule:nonzero}
    .fil6 {fill:#E1CA91;fill-rule:nonzero}
    .fil8 {fill:#F2E6B0;fill-rule:nonzero}
    .fil1 {fill:#F4C232;fill-rule:nonzero}
    .fil9 {fill:#F6F3CC;fill-rule:nonzero}
    .fil0 {fill:#FEFEFE;fill-rule:nonzero}
   ]]>
  </style>
   <clipPath id="id0" style="clip-rule:nonzero">
    <path d="M1210 2408c-216,0 -436,-58 -633,-180 -138,-85 -253,-193 -343,-316 0,0 0,0 0,0 90,123 205,231 343,316 198,121 417,180 633,180l0 0zm42 -2421l0 0c174,6 348,49 511,133l0 0c-163,-84 -337,-128 -511,-133zm-1229 1448c-17,-84 -24,-169 -24,-255 0,0 0,0 0,0 -1,85 7,171 24,255 0,0 0,0 0,0zm2389 -89l0 0c14,-110 12,-220 -4,-328 16,108 18,219 4,328zm-2409 -245c2,-33 6,-66 12,-99 -6,33 -10,66 -12,99l0 0z"/>
   </clipPath>
   <clipPath id="id1" style="clip-rule:nonzero">
    <path d="M1210 2408c-216,0 -436,-58 -633,-180 -138,-85 -253,-193 -343,-316 122,72 719,283 1147,283 144,0 270,-24 352,-85 137,-103 219,-171 270,-214 34,20 80,39 129,39 15,0 29,-1 44,-5 -234,310 -597,478 -966,478zm-37 -2421l80 0c174,6 348,49 511,133 28,14 56,29 83,46 316,195 511,512 563,852 16,108 18,219 4,328l0 0c3,-86 3,-185 -1,-296 -1,-4 -62,-21 -69,-24 -26,-9 -53,-18 -79,-28 -22,-8 -44,-15 -65,-26 -17,-10 -33,-22 -50,-31 -36,-20 -74,-32 -113,-43 -19,-6 -50,-19 -74,-19 -6,0 -10,1 -15,3 -43,16 -92,3 -135,19 -4,1 -8,3 -12,5 -2,-148 -123,-267 -271,-267 -128,0 -236,89 -264,208 -31,-17 -78,-20 -112,-22 -4,0 -8,0 -12,0 -45,0 -91,10 -132,29 -15,7 -29,17 -44,24 -10,3 -21,6 -31,9 -8,3 -15,6 -23,10 -2,-1 -4,-3 -6,-4 -21,-14 -42,-27 -63,-40 -43,-26 -85,-53 -127,-81 -37,-24 -74,-30 -117,-30 -3,0 -6,0 -10,0 -23,0 -42,10 -62,22 -37,21 -76,40 -112,62 -35,20 -67,45 -101,68 -24,17 -51,31 -72,52 -24,24 -49,47 -75,68 -20,15 -40,31 -62,44 -18,11 -38,15 -58,22 -10,3 -35,10 -43,21 2,-33 6,-66 12,-99 25,-151 79,-301 164,-439 221,-360 599,-562 992,-575zm-1149 1448c-17,-84 -24,-169 -24,-255 1,47 4,113 14,189 0,0 0,0 0,0 0,0 0,3 1,7 3,19 6,39 9,59z"/>
   </clipPath>
   <clipPath id="id2" style="clip-rule:nonzero">
    <path d="M1550 1003c-7,-4 -14,-8 -21,-12 -39,-22 -79,-41 -119,-59 -24,-11 -47,-22 -70,-34 -18,-9 -40,-18 -55,-32 -6,-6 -10,-12 -17,-17 -1,0 -1,-1 -2,-1 28,-120 135,-209 264,-209 148,0 268,119 271,266 -22,8 -44,16 -66,23 -44,14 -83,29 -124,51 -20,10 -39,18 -59,23l0 0z"/>
   </clipPath>
   <clipPath id="id3" style="clip-rule:nonzero">
    <path d="M2132 1935c-49,0 -95,-19 -129,-39 78,-66 89,-77 128,-77 23,0 21,-40 6,-92 99,-69 176,-159 154,-273 -18,-95 -61,-191 -164,-210 -4,-1 -9,-1 -13,-1 -22,0 -43,9 -66,10 0,0 0,0 0,0 -10,0 -21,-3 -30,-4 -29,-3 -57,-8 -86,-14 -33,-6 -57,-11 -85,-29 -22,-13 -38,-30 -59,-44 -35,-22 -70,-43 -105,-63 -16,-9 -32,-18 -48,-28 -8,-5 -27,-15 -29,-26 -1,-10 -19,-19 -26,-23 -10,-7 -20,-13 -30,-19 19,-6 39,-13 59,-23 41,-21 80,-36 124,-51 22,-7 44,-15 66,-23 3,-1 8,-3 11,-4 43,-16 92,-3 135,-19 5,-2 10,-2 16,-2 24,0 55,13 74,19 39,11 77,23 113,43 17,10 32,22 50,31 21,11 43,19 65,27 26,10 52,19 79,28 6,2 68,19 69,23 5,112 5,210 1,296l0 0c-21,167 -77,333 -171,486 -21,34 -43,66 -66,97 -14,3 -29,5 -43,5zm-2103 -476c-2,-8 -3,-16 -5,-24 0,0 0,0 0,0 -3,-20 -7,-40 -10,-59 2,13 7,43 14,83zm-15 -90c-10,-76 -13,-142 -14,-189 0,0 0,0 0,0 1,-26 2,-52 4,-78l0 0c8,-11 32,-18 43,-21 19,-7 40,-11 58,-22 21,-13 41,-29 61,-44 27,-21 51,-44 75,-68 21,-21 48,-35 72,-52 34,-23 66,-48 101,-68 37,-22 75,-41 113,-62 20,-11 39,-21 63,-21 3,0 6,0 9,0 43,0 80,6 117,30 42,28 84,54 127,81 21,13 42,27 63,40 2,1 5,3 7,4 -17,8 -32,17 -49,26 -48,26 -93,53 -144,74 0,0 -3,1 -7,2 -1,-7 -3,-13 -5,-17 -19,-32 -81,-41 -115,-43 -1,0 -1,0 -2,0 -9,0 -19,3 -31,6 -11,3 -23,6 -32,6 -8,0 -16,-2 -21,-7 -16,8 -67,53 -50,70 -12,0 -28,-4 -35,-13 -39,5 -35,43 -52,73 -8,14 -17,30 -28,43 -5,5 -12,8 -16,14 -10,15 -1,13 -2,25 -1,12 3,13 -12,23 -21,13 -46,16 -65,32 -26,14 -47,35 -73,51 -17,10 -35,20 -52,31 -14,9 -28,19 -41,29 -21,18 -46,24 -65,45l0 0z"/>
   </clipPath>
   <clipPath id="id4" style="clip-rule:nonzero">
    <path d="M152 1786c-57,-103 -98,-213 -123,-327 -8,-40 -12,-70 -14,-83 -1,-4 -1,-7 -1,-7 0,0 0,0 0,0 19,-21 43,-28 64,-46 13,-10 27,-20 41,-29 18,-11 35,-20 53,-31 26,-16 47,-37 73,-52 -2,1 -3,3 -5,4 -22,22 -11,60 -35,79 -16,13 -56,28 -76,28 0,0 0,0 0,0 -5,-12 -12,-17 -18,-17 -26,0 -53,75 -52,92l-8 144c0,0 52,135 101,241zm1984 -58c-28,-93 -98,-224 -144,-235 -10,-2 -20,-3 -31,-3 -17,0 -33,3 -49,8 -22,8 -43,29 -68,30 0,0 -1,0 -1,0 -22,0 -41,-27 -62,-30 -2,0 -3,0 -5,0 -19,0 -44,12 -58,23 -10,8 -12,11 -15,22 -1,4 7,14 4,17 -1,2 -5,3 -9,3 -21,0 -68,-19 -82,-24 -56,-20 -108,-41 -167,-53 -33,-7 -67,-14 -99,-25 3,-1 5,-1 7,-2 16,-4 33,-9 49,-13 18,-5 35,-9 53,-14 18,-5 35,-10 53,-15 17,-5 33,-10 49,-16 15,-5 30,-11 44,-16 12,-5 25,-11 37,-17 11,-6 21,-11 31,-18 9,-6 18,-11 26,-18 7,-6 14,-11 20,-18 5,-5 9,-11 11,-18 2,-7 1,-13 -3,-18 -6,-9 -18,-14 -27,-19 -10,-5 -21,-9 -32,-12 -23,-7 -46,-12 -69,-17 -47,-10 -95,-18 -142,-26 -37,-6 -74,-9 -112,-15 -29,-4 -58,-8 -88,-12 -30,-4 -60,-8 -90,-13 -29,-4 -58,-9 -87,-14 -26,-5 -53,-10 -79,-14 -20,-3 -41,-7 -61,-12 -12,-4 -24,-6 -35,-12 -6,-3 -20,-9 -18,-18 1,-9 14,-12 21,-14 12,-4 25,-8 38,-11 34,-7 58,-1 89,-7 38,-7 76,-20 112,-35 10,-4 20,-9 30,-14 14,-7 28,-15 41,-25 7,-5 16,-13 15,-22 -2,-8 -16,-16 -23,-18 -24,-7 -56,-8 -91,-8 -12,0 -24,0 -36,0 -12,0 -24,1 -37,1 -50,0 -96,-3 -119,-21 0,0 -8,-7 5,-8 2,0 4,0 5,0 5,0 11,0 16,1 5,1 11,1 16,1 1,0 3,0 5,0 13,-1 27,-5 40,-8 7,-2 15,-5 22,-8 7,-2 25,-13 9,-17 -3,-1 -7,-1 -11,-1 -7,0 -13,1 -19,1 -5,1 -9,1 -14,2 -3,0 -6,0 -6,0 2,0 4,0 6,0 3,0 7,0 11,0 17,0 39,2 8,14 -16,6 -33,11 -51,11 -3,0 -7,0 -11,-1 -4,-1 -8,-2 -12,-3 -3,0 -7,-1 -11,-1 -7,0 -13,1 -18,5 -13,10 24,26 30,28 16,5 33,6 49,7 11,1 23,1 34,1 12,0 26,-1 38,-1 13,-1 26,-1 39,-1 1,0 3,0 5,0 25,0 53,0 77,8 11,4 28,12 18,26 -9,11 -24,20 -36,26 -48,26 -100,49 -156,52 -16,1 -33,1 -50,3 -23,3 -46,8 -68,16 -5,2 -11,5 -14,9 -9,7 -18,16 -6,25 19,13 42,20 64,26 25,8 51,13 77,18 14,3 30,5 44,8 35,6 70,12 105,18 33,6 66,11 98,16 30,5 59,10 88,15 25,4 49,8 74,13 20,3 39,7 58,11 14,3 29,6 43,11 9,3 19,6 27,11 5,3 11,7 12,12 5,12 -5,26 -12,33 -10,8 -21,14 -32,18 -31,11 -63,19 -95,25 -33,6 -66,10 -99,14 -33,4 -65,8 -98,11 -7,1 -14,1 -21,2 -14,-17 -19,-37 -37,-54 -11,-9 -31,-34 -43,-39 -3,-1 -7,-2 -10,-2 -17,0 -32,16 -48,19 -3,1 -7,1 -9,1 -12,0 -16,-6 -28,-15 -11,-7 -22,-10 -33,-15 -14,-6 -32,-13 -43,-23 -13,-10 -33,-32 -36,-48 -1,-8 7,-17 4,-28 -7,-25 -30,-26 -50,-35 -5,-3 -51,-28 -39,-37 11,-8 -6,-35 -13,-41 -12,-11 -29,-10 -44,-13 -7,-1 -16,-6 -24,-6 -1,0 -3,0 -4,1 -9,3 -11,19 -21,20 0,0 0,0 0,0 -14,0 -17,-29 -20,-50 4,-1 7,-2 7,-2 51,-21 96,-48 144,-74 16,-9 32,-18 49,-26 8,-4 15,-7 23,-10 10,-4 21,-5 31,-9 15,-6 29,-16 44,-24 41,-19 87,-29 132,-29 4,0 8,0 12,0 33,1 81,5 112,21 1,1 2,1 3,1 7,4 11,11 17,17 15,13 37,22 55,31 23,12 47,24 70,34 41,18 81,38 119,59 7,4 14,8 21,12 10,6 20,12 30,19 7,5 24,14 26,24 2,11 20,21 29,26 16,10 32,19 48,28 35,20 71,40 105,62 21,14 37,31 59,44 29,17 53,22 85,29 28,6 56,10 85,14 9,1 20,4 30,4 0,0 1,0 1,0 22,0 44,-10 66,-10 4,0 9,1 12,1 103,19 146,115 165,210 22,114 -55,204 -154,273l0 0z"/>
   </clipPath>
   <clipPath id="id5" style="clip-rule:nonzero">
    <path d="M1349 1459c-23,-8 -45,-19 -65,-33 -19,-13 -32,-30 -53,-42 -9,-5 -15,-11 -21,-18 7,-1 14,-1 21,-2 33,-3 65,-6 98,-11 33,-4 66,-8 99,-14 32,-6 64,-14 95,-25 12,-4 23,-10 32,-18 8,-7 17,-21 13,-33 -2,-6 -7,-10 -12,-12 -8,-5 -18,-8 -27,-11 -14,-4 -29,-8 -43,-10 -19,-4 -39,-8 -59,-11 -24,-4 -49,-9 -74,-13 -29,-5 -59,-10 -88,-15 -33,-5 -66,-11 -99,-17 -35,-6 -70,-11 -105,-18 -15,-3 -29,-5 -44,-8 -26,-5 -52,-11 -78,-18 -22,-7 -45,-13 -64,-26 -13,-9 -3,-18 5,-25 5,-4 9,-6 15,-9 21,-9 44,-13 67,-17 17,-2 34,-2 50,-3 55,-3 107,-25 155,-52 12,-7 28,-15 36,-26 11,-13 -7,-22 -18,-26 -24,-8 -52,-8 -77,-8 -2,0 -3,0 -5,0 -13,0 -26,1 -39,1 -13,1 -26,1 -38,1 -12,0 -23,0 -34,-1 -16,-1 -33,-3 -49,-7 -6,-2 -43,-17 -29,-27 5,-4 12,-5 18,-5 4,0 8,0 11,1 4,1 8,2 12,3 4,1 8,1 11,1 17,0 34,-5 50,-11 31,-12 10,-14 -8,-14 -4,0 -8,0 -11,0 5,0 9,-1 14,-2 6,-1 12,-2 19,-2 4,0 8,1 11,1 15,4 -3,15 -9,17 -8,3 -15,5 -22,7 -13,3 -27,7 -40,8 -2,0 -3,0 -5,0 -5,0 -11,0 -16,-1 -5,0 -10,-1 -16,-1 -2,0 -3,0 -5,0 -13,1 -5,8 -5,8 24,18 70,20 120,20 12,0 24,0 36,0 12,0 24,0 36,0 34,0 66,1 90,8 7,2 21,10 23,18 2,9 -9,17 -15,22 -13,10 -27,18 -41,25 -10,5 -20,10 -29,14 -36,15 -74,29 -112,36 -31,6 -55,0 -89,7 -13,3 -25,7 -38,11 -7,2 -20,5 -22,14 -2,9 13,15 19,18 11,5 23,8 35,12 20,6 41,9 61,12 26,5 52,10 78,14 29,5 58,10 87,15 30,4 60,8 90,12 29,4 59,8 88,12 37,5 74,9 111,15 47,7 95,15 142,26 23,5 46,10 69,17 11,3 21,7 31,12 10,5 21,10 27,19 4,5 5,12 3,18 -2,7 -7,13 -12,18 -6,7 -13,13 -20,18 -8,6 -17,12 -26,18 -10,6 -20,12 -31,18 -12,6 -24,12 -37,17 -14,6 -29,11 -44,16 -16,6 -33,11 -49,16 -18,5 -35,10 -53,15 -18,5 -35,9 -53,14 -16,4 -32,9 -49,13 -3,1 -5,1 -8,2zm-354 -579c0,0 2,0 6,0 -2,0 -4,0 -6,0l0 0z"/>
   </clipPath>
   <clipPath id="id6" style="clip-rule:nonzero">
    <path d="M1381 2196c-428,0 -1025,-211 -1147,-283 0,0 0,0 0,0 -30,-41 -57,-83 -81,-127 -49,-106 -101,-242 -101,-242l8 -144c-1,-17 27,-92 51,-92 7,0 13,5 18,17 0,0 0,0 0,0 21,0 61,-16 77,-28 24,-20 13,-58 35,-79 2,-1 3,-3 5,-4 19,-16 44,-18 65,-31 15,-10 11,-12 12,-23 2,-12 -7,-9 2,-25 4,-6 11,-8 16,-13 11,-13 19,-29 28,-43 18,-30 14,-68 52,-73 8,8 24,12 35,13 -16,-18 35,-62 51,-70 5,5 13,7 21,7 10,0 22,-3 33,-6 11,-3 22,-6 31,-6 1,0 1,0 2,0 34,2 95,11 115,43 2,3 4,9 5,17 4,20 7,49 21,49 0,0 1,0 1,0 10,0 11,-17 21,-20 1,0 3,-1 4,-1 8,0 17,5 24,6 16,3 32,2 45,13 7,6 24,32 13,40 -12,10 34,35 39,37 20,9 43,10 49,35 3,11 -5,21 -4,29 2,16 23,38 36,48 12,9 29,17 43,23 11,5 23,8 33,15 12,8 16,15 28,15 3,0 6,0 9,-1 16,-3 31,-20 48,-20 3,0 6,1 10,2 12,5 33,29 43,39 18,17 24,38 37,54 5,7 12,13 21,18 21,12 34,29 52,42 21,14 42,25 65,33 32,12 66,18 99,25 60,12 110,33 167,53 14,5 61,24 82,24 4,0 8,-1 10,-3 2,-3 -6,-13 -4,-17 3,-10 5,-14 14,-21 14,-11 39,-23 59,-23 1,0 3,0 5,0 22,3 41,29 63,29 0,0 0,0 0,0 25,0 46,-21 69,-29 15,-5 32,-8 49,-8 10,0 21,1 31,3 46,10 117,142 145,235 16,52 17,91 -5,91 -39,0 -51,12 -128,78 -51,43 -133,111 -270,214 -81,61 -207,86 -352,86l0 0z"/>
   </clipPath>
 </defs>
 <g id="Layer_x0020_1">
  <metadata id="CorelCorpID_0Corel-Layer"/>
  <path class="fil0" d="M180 563c222,-360 601,-563 994,-575l77 0c204,7 408,65 594,179 569,351 747,1096 396,1666 -351,569 -1096,747 -1666,396 -569,-351 -747,-1096 -396,-1666z"/>
  <path class="fil1" d="M1799 911c0,150 -121,271 -271,271 -150,0 -271,-121 -271,-271 0,-150 121,-271 271,-271 150,0 271,121 271,271z"/>
  <path class="fil2" d="M1 1106c0,0 -25,394 146,690 171,296 1041,-100 1041,-100 0,0 727,104 762,157 35,53 514,380 461,-803 0,-4 -62,-21 -69,-23 -26,-9 -53,-18 -79,-28 -22,-8 -44,-15 -65,-26 -17,-9 -33,-22 -50,-31 -36,-20 -74,-32 -113,-43 -23,-7 -65,-25 -89,-16 -43,16 -92,3 -135,19 -26,10 -52,19 -78,28 -44,14 -83,29 -124,51 -55,28 -108,36 -169,44 0,0 -356,12 -377,-8 -22,-21 -49,-38 -74,-56 -29,-21 -55,-47 -84,-66 -21,-14 -42,-27 -63,-40 -43,-26 -85,-53 -127,-80 -39,-26 -79,-31 -126,-30 -24,0 -43,10 -63,22 -37,21 -75,40 -112,62 -35,20 -67,46 -100,68 -25,17 -51,31 -72,52 -24,24 -48,47 -75,68 -20,16 -40,31 -62,44 -18,11 -38,15 -58,22 -12,4 -41,12 -46,25z"/>
  <path class="fil3" d="M14 1370c0,0 42,341 174,473 76,76 298,67 487,57 139,-7 261,-14 296,13 82,64 809,22 826,-12 17,-34 546,-170 493,-447 -18,-95 -62,-191 -165,-210 -27,-5 -52,8 -79,8 -10,0 -20,-3 -30,-4 -29,-3 -57,-8 -85,-14 -33,-6 -56,-11 -85,-29 -22,-13 -38,-30 -60,-44 -34,-22 -69,-43 -104,-63 -16,-9 -33,-18 -48,-28 -8,-5 -27,-15 -29,-26 -2,-10 -19,-19 -26,-24 -16,-11 -34,-21 -51,-31 -39,-22 -79,-41 -119,-59 -24,-11 -47,-22 -70,-34 -18,-9 -40,-18 -55,-32 -6,-6 -10,-12 -17,-17 -31,-18 -79,-22 -114,-23 -49,-2 -99,8 -143,29 -15,7 -29,18 -45,24 -10,4 -20,5 -30,9 -25,9 -48,23 -71,36 -48,26 -94,53 -144,74 0,0 -118,38 -117,43 1,5 -152,96 -159,100 -27,14 -54,27 -83,36 -36,11 -73,16 -107,32 -31,14 -53,38 -82,56 -18,11 -35,20 -53,31 -14,9 -28,18 -41,29 -22,17 -45,24 -65,45z"/>
  <path class="fil4" d="M995 880c0,0 71,-5 24,14 -19,8 -40,13 -61,10 -4,-1 -8,-2 -12,-3 -9,-1 -21,-2 -29,4 -14,10 24,26 30,27 16,5 32,6 49,7 24,2 48,1 73,0 14,0 29,-1 43,-1 25,0 53,0 77,8 11,4 29,12 18,26 -9,11 -24,20 -36,26 -48,26 -100,49 -155,51 -17,1 -34,1 -50,3 -23,3 -46,8 -67,16 -5,2 -10,5 -15,9 -9,7 -18,16 -5,25 19,13 42,20 64,26 25,8 51,13 77,18 15,3 30,5 44,8 35,6 70,12 105,18 33,6 66,11 99,17 29,5 59,10 88,15 25,4 49,8 74,13 20,3 39,7 59,11 14,3 29,6 43,11 9,3 19,6 27,11 5,3 10,7 12,12 5,12 -4,26 -13,33 -9,8 -21,14 -32,18 -31,11 -63,19 -95,25 -33,6 -66,10 -99,14 -33,4 -65,8 -98,11 -25,2 -51,4 -76,6 -11,1 -22,2 -33,2l-1 0c0,0 -583,-10 -300,88 284,98 372,87 372,87 0,0 -6,-27 24,-50 4,-3 12,-4 16,-5 7,-2 13,-4 20,-6 9,-3 17,-5 26,-8 11,-3 23,-6 34,-9 14,-4 28,-8 42,-11 16,-4 32,-9 49,-13 18,-5 35,-9 52,-14 18,-5 35,-10 53,-15 17,-5 33,-10 49,-16 15,-5 29,-10 43,-16 13,-5 25,-11 37,-17 11,-5 21,-11 31,-18 9,-6 18,-12 26,-18 7,-6 14,-12 20,-18 5,-5 10,-11 11,-19 2,-6 1,-13 -3,-18 -6,-9 -18,-14 -27,-19 -10,-5 -21,-9 -31,-12 -23,-7 -46,-12 -69,-17 -47,-10 -94,-18 -142,-26 -37,-6 -74,-10 -111,-15 -29,-4 -59,-8 -88,-12 -30,-4 -60,-8 -90,-12 -29,-4 -58,-9 -87,-15 -26,-5 -52,-10 -78,-14 -20,-4 -41,-7 -61,-12 -12,-3 -24,-6 -36,-12 -6,-3 -20,-9 -19,-18 2,-9 14,-12 22,-14 13,-4 25,-8 38,-11 34,-7 58,-1 89,-7 38,-7 77,-20 112,-36 10,-4 20,-9 30,-14 14,-7 28,-15 41,-25 6,-5 17,-13 15,-22 -2,-8 -15,-16 -23,-18 -32,-9 -79,-8 -127,-8 -63,1 -127,2 -156,-20 0,0 -8,-7 5,-8 7,0 14,0 21,1 7,1 14,1 21,1 13,-1 27,-5 40,-8 8,-2 15,-5 22,-7 7,-2 25,-13 9,-17 -9,-3 -21,-1 -30,0 -6,1 -13,2 -19,2z"/>
  <path class="fil5" d="M51 1545c0,0 111,288 162,353 51,65 1175,472 1520,213 345,-259 333,-292 398,-292 65,0 -67,-310 -139,-326 -26,-6 -55,-4 -80,5 -22,8 -44,29 -69,29 -22,0 -41,-27 -63,-29 -19,-2 -48,11 -63,23 -9,7 -11,11 -15,22 -1,4 7,14 4,17 -10,11 -74,-15 -91,-21 -57,-20 -108,-41 -167,-53 -57,-12 -116,-24 -164,-58 -19,-13 -32,-30 -53,-42 -31,-19 -32,-48 -57,-72 -10,-10 -31,-34 -43,-39 -21,-8 -38,14 -58,18 -19,4 -23,-4 -37,-14 -10,-7 -22,-10 -33,-15 -14,-6 -31,-13 -43,-23 -13,-10 -34,-32 -36,-48 -1,-8 7,-17 4,-28 -6,-25 -30,-26 -50,-35 -5,-3 -52,-28 -39,-37 10,-8 -6,-34 -13,-40 -13,-11 -29,-10 -44,-13 -8,-2 -20,-9 -28,-6 -9,3 -11,19 -20,20 -19,1 -18,-53 -26,-66 -19,-32 -81,-41 -115,-43 -9,-1 -21,3 -33,6 -20,5 -42,11 -53,-1 -15,8 -67,53 -50,70 -12,0 -28,-4 -35,-13 -39,5 -34,43 -52,73 -8,14 -17,30 -28,43 -4,5 -12,8 -16,14 -10,15 -1,13 -2,25 -1,12 3,13 -12,23 -22,15 -50,16 -69,36 -22,22 -11,60 -35,79 -16,13 -56,28 -76,28 -27,-59 -71,55 -70,75l-8 145z"/>
  <g style="clip-path:url(#id0)">
   <image transform="matrix(176.209 0 0 176.309 -570245 -215516)" x="3236" y="1222" width="14" height="14" xlink:href="p1bkru6o2c1o913lmrf31t6hnij4_Images\p1bkru6o2c1o913lmrf31t6hnij4_ImgID1.png"/>
  </g>
  <g style="clip-path:url(#id1)">
   <image transform="matrix(176.209 0 0 176.309 -570245 -215516)" x="3236" y="1222" width="14" height="14" xlink:href="p1bkru6o2c1o913lmrf31t6hnij4_Images\p1bkru6o2c1o913lmrf31t6hnij4_ImgID2.png"/>
  </g>
  <g style="clip-path:url(#id2)">
   <image transform="matrix(39.9175 0 0 27.9182 -127925 -33496)" x="3236" y="1222" width="14" height="14" xlink:href="p1bkru6o2c1o913lmrf31t6hnij4_Images\p1bkru6o2c1o913lmrf31t6hnij4_ImgID3.png"/>
  </g>
  <g style="clip-path:url(#id3)">
   <image transform="matrix(175.309 0 0 87.4145 -567326 -106107)" x="3236" y="1222" width="14" height="14" xlink:href="p1bkru6o2c1o913lmrf31t6hnij4_Images\p1bkru6o2c1o913lmrf31t6hnij4_ImgID4.png"/>
  </g>
  <g style="clip-path:url(#id4)">
   <image transform="matrix(166.709 0 0 70.7155 -539485 -85617.6)" x="3236" y="1222" width="14" height="14" xlink:href="p1bkru6o2c1o913lmrf31t6hnij4_Images\p1bkru6o2c1o913lmrf31t6hnij4_ImgID5.png"/>
  </g>
  <g style="clip-path:url(#id5)">
   <image transform="matrix(63.916 0 0 43.3173 -205986 -52076.7)" x="3236" y="1222" width="14" height="14" xlink:href="p1bkru6o2c1o913lmrf31t6hnij4_Images\p1bkru6o2c1o913lmrf31t6hnij4_ImgID6.png"/>
  </g>
  <g style="clip-path:url(#id6)">
   <image transform="matrix(153.21 0 0 91.7142 -495767 -111162)" x="3236" y="1222" width="14" height="14" xlink:href="p1bkru6o2c1o913lmrf31t6hnij4_Images\p1bkru6o2c1o913lmrf31t6hnij4_ImgID7.png"/>
  </g>
  <path class="fil6" d="M147 1699c0,0 148,-51 236,-97 88,-46 315,-176 431,-79 116,97 319,134 352,134 32,0 255,37 366,167 111,130 218,79 218,79 0,0 -1000,620 -1602,-204z"/>
  <path class="fil7" d="M147 1699l35 43c12,14 23,29 36,42l38 40 10 10 10 9 21 19 21 19 10 9 11 8 44 34c7,6 15,11 23,16l23 15 23 15c8,5 16,9 24,13 16,9 32,18 49,26l51 23 13 6 13 5 26 9 26 9 27 7 27 7 13 4 14 3 54 11 55 7c18,3 37,3 55,4 18,2 37,2 55,2l28 0c9,0 18,-1 28,-1 37,-1 74,-5 110,-9l55 -8 54 -10 54 -12c18,-4 36,-9 54,-14 36,-10 71,-21 106,-33 17,-6 35,-13 52,-19 17,-7 34,-14 51,-21 34,-14 68,-30 101,-46 33,-16 66,-34 97,-52l13 24c-11,5 -20,7 -30,9 -10,2 -20,2 -30,2 -20,0 -40,-4 -58,-10 -38,-13 -69,-35 -97,-63l-37 -40c-13,-12 -26,-24 -40,-34 -29,-21 -60,-39 -93,-53 -33,-15 -67,-27 -101,-36 -17,-5 -35,-9 -52,-13 -9,-2 -18,-3 -26,-5 -9,-1 -17,-2 -26,-3 -21,-1 -38,-5 -56,-8 -18,-4 -36,-8 -54,-13 -36,-10 -71,-22 -105,-36 -34,-14 -68,-31 -99,-51 -8,-5 -16,-10 -23,-16l-22 -17c-13,-11 -29,-19 -45,-24 -33,-10 -70,-10 -105,-4 -35,6 -70,16 -104,29 -34,13 -67,27 -100,43 -33,16 -65,34 -99,48 -17,7 -33,16 -50,22l-51 20c-17,7 -34,13 -52,19 -17,6 -35,12 -52,18zm0 0c17,-6 34,-13 51,-20 17,-7 34,-13 51,-21l50 -21c17,-7 33,-16 49,-23 33,-15 65,-34 97,-51 33,-17 66,-33 100,-47 34,-14 70,-25 106,-32 37,-7 75,-8 113,3 18,5 36,14 52,26l22 16c7,6 15,10 22,15 30,19 63,34 96,48 34,13 68,24 103,33 17,5 35,8 53,12 17,3 36,7 52,7 9,0 20,1 29,3 9,1 18,3 28,5 18,4 36,8 54,13 36,10 71,22 105,37 34,15 67,33 97,56 15,11 30,23 43,36l38 40c6,6 13,11 19,17 7,5 14,10 21,16 15,9 30,18 46,22 16,5 33,9 50,8 16,0 34,-3 48,-9l13 24c-33,20 -66,37 -100,53 -34,16 -68,32 -103,46 -17,7 -35,14 -52,21 -18,6 -35,13 -53,19 -35,12 -71,23 -107,33 -18,5 -36,10 -54,14 -18,4 -37,8 -55,12l-55 10 -56 8c-37,4 -75,7 -112,8 -9,0 -19,1 -28,1l-28 -1c-19,0 -38,-1 -56,-3 -19,-2 -37,-2 -56,-5l-56 -8 -55 -12 -14 -3 -14 -4 -27 -8 -27 -8 -26 -10 -26 -10 -13 -5 -13 -6 -51 -24c-17,-9 -33,-18 -49,-28 -8,-5 -16,-9 -24,-14l-23 -16 -23 -16c-8,-5 -15,-10 -23,-17l-43 -35 -11 -9 -10 -10 -20 -19 -20 -19 -10 -10 -9 -10 -37 -42c-13,-14 -23,-29 -35,-44l-34 -44z"/>
  <path class="fil8" d="M1564 1893c0,0 -102,-120 -301,-162 -199,-42 -417,-5 -444,-60 -28,-56 -79,-97 -14,-102 65,-5 97,9 28,-28 -69,-37 -162,-60 -245,-23 -83,37 -157,88 -74,88 83,0 204,28 139,56 -65,28 -148,116 -148,116 0,0 -32,60 9,106 42,46 505,144 583,130 79,-14 361,-79 273,-148 0,0 -19,-65 194,28z"/>
  <path class="fil9" d="M508 1727c-2,0 -3,-1 -3,-1 -28,11 -56,25 -83,40 -3,2 -5,3 -6,7 -4,15 -7,30 -8,49 37,-30 69,-61 99,-94zm-48 -570c4,-6 8,-11 12,-17 -13,0 -17,5 -12,17zm10 107l0 0 0 0c8,0 16,-3 25,-1 2,0 5,0 6,2 0,2 -1,4 -3,6 -10,10 -23,15 -37,18 -7,2 -8,4 -9,11 -7,115 -17,230 -28,345 0,4 0,8 1,12 6,-15 12,-30 18,-44 35,-79 83,-147 156,-196 31,-20 65,-35 101,-44 2,0 4,-1 6,0 -26,11 -51,24 -74,40 -68,46 -115,108 -152,180 -24,47 -42,96 -57,147 -1,3 -2,6 0,9 7,-1 12,-6 18,-9 21,-11 42,-21 64,-29 16,-5 27,-14 37,-27 20,-28 39,-57 57,-87 -15,35 -36,67 -60,101 90,-31 180,-47 273,-51 -61,9 -122,20 -181,35 -34,9 -67,20 -99,32 -6,2 -10,5 -14,10 -30,36 -65,69 -102,98 -7,5 -10,11 -10,19 -2,22 -5,44 -6,66 -1,10 -13,4 -14,11 0,-5 -7,-8 -6,-15 3,-18 4,-37 6,-58 -4,3 -8,6 -12,8l-2 -3c6,-4 11,-8 14,-14 6,-16 6,-35 6,-54 -11,7 -21,14 -31,21l-6 -9c13,-9 25,-17 37,-25 4,-3 3,-7 3,-10 5,-51 10,-103 15,-155 9,-101 18,-202 24,-303 1,-11 -1,-17 -12,-22 -13,-6 -26,-14 -32,-30 18,0 33,4 45,19 2,-10 3,-16 -10,-16 -15,0 -26,-10 -38,-18 -4,-3 -3,-5 1,-7 10,-6 19,-5 28,0 8,4 13,11 19,19 4,-11 3,-17 -10,-19 -14,-2 -24,-12 -35,-21 -4,-3 -3,-5 1,-7 10,-5 19,-3 28,4 7,5 11,12 17,20 3,-10 4,-16 -8,-20 -13,-4 -25,-11 -33,-22 -1,-2 -4,-4 -2,-7 2,-3 5,-2 7,-2 7,1 13,3 22,4 -12,-8 -25,-13 -31,-27 19,-1 35,0 47,17 7,-21 3,-34 -12,-40l-3 -3c-5,-11 -10,-22 -14,-32 -4,-8 0,-10 7,-8 11,3 17,10 20,20 2,5 3,11 4,19 3,-19 6,-35 14,-49 14,9 18,22 10,39 -4,8 -6,15 -4,24 4,-7 6,-13 10,-19 6,-9 15,-14 26,-12 6,1 6,3 3,8 -5,7 -11,13 -17,20 10,-2 19,-4 27,4 -12,10 -23,20 -39,23 -12,2 -12,2 -10,16 8,-13 19,-18 33,-19 3,-1 7,-2 9,0 2,3 -1,7 -3,9 -8,11 -19,17 -32,22 -7,3 -8,6 -8,12 0,9 0,18 -1,28 4,-5 8,-9 11,-13 -2,-4 -8,1 -8,-4 0,-3 2,-6 3,-8 10,-17 21,-24 35,-21 3,1 7,1 7,4 0,2 -3,4 -5,6 -6,5 -13,11 -21,17 6,0 10,-1 14,-1 3,0 7,-2 8,2 1,3 -2,6 -4,8 -4,5 -9,8 -14,11 -2,1 -6,2 -5,6 -18,-2 -25,5 -22,20 7,-7 11,-18 22,-20 9,-7 17,-3 26,2 -9,12 -23,16 -34,24l-1 0 0 0zm0 0c-17,-1 -17,-1 -14,14 3,-7 9,-10 14,-14z"/>
  <path class="fil9" d="M436 1147c1,2 2,5 0,6 -2,2 -4,1 -6,0 -16,-5 -26,-18 -36,-31 -3,-4 1,-5 4,-6 9,-2 17,0 24,7l3 3c5,6 8,13 11,20z"/>
  <path class="fil9" d="M305 1837c3,-3 3,-7 2,-11 -5,-38 -11,-75 -19,-112 -4,-16 -8,-32 -11,-47 -8,69 -10,138 -12,210 15,-15 27,-28 40,-40zm14 -13c8,-5 14,-9 13,-19 -4,-100 -8,-201 -16,-301 -2,-20 -4,-40 -6,-61 -4,2 -4,5 -4,7 -12,48 -20,96 -25,145 -1,8 -2,15 0,23 22,67 33,135 37,207zm53 29l2 3c-6,4 -12,8 -18,13 -3,2 -2,6 -2,10 0,12 0,24 0,36 0,8 -5,7 -10,7 -5,0 -10,1 -10,-7 1,-8 0,-15 0,-23 0,-8 -4,-6 -8,-5l0 0 0 0c2,-5 8,-6 8,-12 -1,-15 -1,-30 -1,-45 -9,4 -13,8 -13,18 1,11 1,21 1,32 0,4 -1,8 5,8l0 0c-7,6 -5,13 -5,21 0,6 0,11 -1,17 -6,-25 -5,-51 -10,-79 -16,19 -40,28 -45,52 0,-2 0,-8 -6,-1l-1 1c-2,2 -3,3 -5,5l-4 -1 1 -1c11,-12 12,-24 11,-39 -4,-66 -4,-133 2,-199 2,-24 -1,-45 -9,-67 -22,-55 -48,-106 -88,-150 -28,-30 -61,-54 -99,-69 -2,-1 -4,-2 -5,-4 52,12 94,40 129,78 35,38 59,82 80,133 6,-45 11,-88 26,-128 12,-33 11,-66 6,-99 -5,-25 -8,-51 -12,-76 -1,-7 -4,-9 -10,-9 -15,-1 -31,-1 -44,-14 17,-7 33,-11 49,1 1,-9 0,-12 -10,-10 -16,2 -30,-5 -45,-12 14,-15 24,-15 51,4 2,-6 -1,-11 -2,-16 0,-2 -1,-4 -1,-7 -2,-12 -3,-21 -20,-18 -13,2 -26,-5 -39,-12 14,-16 25,-14 51,6 -1,-17 -1,-17 -18,-18 -20,-1 -30,-4 -39,-13 17,-11 31,-10 47,1 -1,-11 -1,-11 -13,-10 -14,1 -27,-4 -40,-10 -6,-3 -4,-5 0,-8 9,-7 19,-7 28,-2 6,3 12,8 20,13 -4,-8 -3,-17 -16,-16 -15,1 -27,-11 -39,-20 -4,-3 -1,-5 2,-7 10,-5 19,-3 27,3 5,4 9,8 15,14 -2,-9 -8,-11 -11,-15 -9,-11 -14,-22 -8,-36 3,-7 6,-10 11,-2 7,11 15,22 18,36 0,2 1,4 4,4 -4,-21 -8,-42 15,-54 2,0 3,0 5,0 1,19 -2,37 -15,53 -6,7 4,11 5,16 2,-8 2,-16 4,-23 4,-11 10,-19 22,-20 5,-1 9,0 6,7 -6,15 -12,31 -27,40 -8,5 2,9 2,14 4,-19 18,-27 35,-35 2,11 -3,19 -8,26 -5,7 -10,14 -16,19 -6,5 -6,9 -1,15 3,-20 18,-28 34,-35 0,21 -12,34 -24,46 -5,5 -6,9 -4,14 2,4 1,9 5,13 1,-8 1,-16 3,-23 2,-6 4,-11 9,-15 5,-5 13,-9 19,-5 4,3 -1,10 -3,14 -5,13 -11,25 -25,32 -4,2 -3,4 -2,7 1,5 3,11 4,18 2,-7 3,-13 4,-18 2,-7 6,-14 13,-18 6,-3 13,-6 17,-2 3,3 -2,9 -4,13 -6,12 -13,24 -26,31 -7,3 0,8 -1,12 5,-15 18,-22 31,-26 2,-1 5,-3 7,-1 2,2 1,6 0,9 -6,13 -16,22 -28,30 -6,4 -7,8 -6,15 6,33 10,67 16,101 12,-17 21,-35 39,-46 -4,4 -7,8 -11,13 -19,24 -28,50 -24,83 13,102 17,205 21,309 1,20 2,41 3,62l3 -2 6 9c-1,1 -3,2 -4,3 -4,3 -6,6 -5,10 1,14 1,29 2,47 6,-5 13,-9 19,-12z"/>
  <path class="fil9" d="M255 1925c2,2 3,4 5,7 -10,-1 -11,-19 -26,-12 5,-6 3,-9 0,-14 -50,-63 -75,-135 -84,-214 -3,-26 -4,-52 -2,-78 0,-4 0,-9 3,-15 2,36 5,71 12,106 12,69 35,133 73,192 5,8 8,8 13,2l4 1c-9,9 -7,11 3,25z"/>
  <path class="fil9" d="M223 1208c24,-14 40,-9 54,15 -12,-2 -24,0 -35,-4 -7,-2 -15,-4 -19,-11z"/>
  <path class="fil10" d="M49 1551c37,171 118,298 199,407 23,31 49,61 75,90 67,75 143,142 224,201 63,47 130,88 202,121 69,31 141,53 214,72 9,2 17,5 26,7 338,63 713,-5 986,-215 213,-164 486,-523 396,-805 -75,-236 -420,-258 -586,-114 -31,27 -63,55 -81,92 -11,24 -29,54 -35,135 23,-64 153,-124 243,-45 76,66 37,209 -16,271 -79,93 -205,158 -316,209 -221,102 -486,138 -726,93 -99,-19 -197,-57 -288,-101 -85,-41 -184,-83 -259,-136 -59,-41 -74,-50 -130,-96 9,8 -24,-29 -31,-36 -32,-35 -19,-23 -42,-49 -17,-20 -50,-73 -57,-102z"/>
  <path class="fil0" d="M1890 1313c0,0 33,-77 161,-86 0,0 -212,-55 -368,261 0,0 39,-71 168,-53 0,0 260,-5 106,270 0,0 224,-208 -8,-306 0,0 -116,-49 -59,-86z"/>
  <path class="fil0" d="M343 1874c0,0 684,488 1348,139 0,0 -646,494 -1348,-139z"/>
  <path class="fil0" d="M1210 2286c0,0 264,73 615,-134 350,-208 -615,134 -615,134z"/>
  <path class="fil11" d="M3061 1311l322 97c-22,90 -56,166 -102,226 -47,61 -104,106 -173,137 -69,31 -157,46 -263,46 -129,0 -235,-19 -317,-56 -82,-38 -153,-104 -212,-198 -60,-95 -89,-216 -89,-363 0,-197 52,-348 157,-454 105,-106 253,-159 444,-159 150,0 268,30 353,91 86,61 149,154 191,279l-325 72c-11,-36 -23,-63 -36,-80 -21,-28 -46,-50 -75,-65 -30,-15 -63,-23 -100,-23 -83,0 -147,34 -192,101 -34,50 -50,128 -50,234 0,132 20,222 60,271 40,49 96,73 169,73 70,0 124,-20 159,-59 36,-40 62,-97 78,-172z"/>
  <polygon class="fil11" points="3527,1798 3895,1798 3895,609 3527,609 "/>
  <path class="fil11" d="M4045 1405l350 -22c8,57 23,100 46,130 38,48 92,72 162,72 52,0 93,-12 121,-37 28,-25 43,-53 43,-86 0,-31 -14,-58 -41,-83 -27,-24 -90,-47 -188,-69 -161,-36 -276,-84 -345,-144 -69,-60 -104,-137 -104,-230 0,-61 18,-119 53,-173 35,-54 89,-97 160,-128 71,-31 169,-47 293,-47 152,0 268,28 348,85 80,57 127,147 142,270l-347 20c-9,-54 -29,-93 -58,-117 -30,-24 -70,-37 -122,-37 -43,0 -75,9 -97,27 -22,18 -32,40 -32,66 0,19 9,36 27,51 17,16 58,30 123,44 161,35 276,70 345,105 70,35 120,79 152,132 32,52 47,111 47,176 0,76 -21,147 -63,211 -42,64 -101,113 -177,147 -76,33 -171,50 -287,50 -202,0 -343,-39 -420,-117 -78,-78 -122,-177 -132,-297z"/>
  <path class="fil11" d="M5965 1345l-131 -428 -130 428 261 0zm76 257l-417 0 -58 196 -375 0 447 -1190 401 0 447 1190 -385 0 -60 -196z"/>
  <path class="fil12" d="M2429 2042l-13 -44 -13 44 27 0zm8 26l-43 0 -6 20 -38 0 46 -122 41 0 46 122 -39 0 -6 -20z"/>
  <polygon class="fil12" points="2565,1967 2601,1967 2646,2034 2646,1967 2682,1967 2682,2089 2646,2089 2601,2022 2601,2089 2565,2089 "/>
  <path class="fil12" d="M2747 2028c0,12 2,21 7,26 5,5 11,8 19,8 8,0 14,-3 19,-8 4,-5 7,-15 7,-28 0,-11 -2,-20 -7,-25 -5,-5 -11,-8 -19,-8 -8,0 -14,3 -18,8 -5,5 -7,14 -7,27zm-38 0c0,-20 6,-35 17,-46 11,-11 26,-17 46,-17 20,0 36,5 47,16 11,11 16,26 16,46 0,14 -2,26 -7,35 -5,9 -12,16 -21,21 -9,5 -20,8 -34,8 -14,0 -25,-2 -34,-7 -9,-4 -16,-11 -22,-21 -6,-9 -8,-21 -8,-36z"/>
  <path class="fil12" d="M2924 2042l-13 -44 -13 44 27 0zm8 26l-43 0 -6 20 -38 0 46 -122 41 0 46 122 -39 0 -6 -20z"/>
  <path class="fil12" d="M3063 2042l-13 -44 -13 44 27 0zm8 26l-43 0 -6 20 -38 0 46 -122 41 0 46 122 -39 0 -6 -20z"/>
  <path class="fil12" d="M3238 2016l16 0c2,0 5,-1 10,-2 2,-1 5,-2 6,-4 2,-2 2,-4 2,-7 0,-4 -1,-7 -4,-9 -3,-2 -7,-3 -14,-3l-17 0 0 25zm-38 72l0 -122 63 0c12,0 21,1 27,3 6,2 11,6 15,11 4,5 6,12 6,20 0,7 -1,13 -4,17 -3,5 -7,9 -12,12 -3,2 -8,4 -13,5 4,1 8,3 10,4 1,1 3,3 6,6 3,3 4,6 5,8l18 35 -42 0 -20 -37c-3,-5 -5,-8 -7,-9 -3,-2 -6,-3 -9,-3l-3 0 0 49 -38 0z"/>
  <polygon class="fil12" points="3340,2089 3378,2089 3378,1967 3340,1967 "/>
  <path class="fil12" d="M3405 2048l36 -2c1,6 2,10 5,13 4,5 9,7 17,7 5,0 10,-1 12,-4 3,-3 4,-5 4,-9 0,-3 -1,-6 -4,-8 -3,-3 -9,-5 -19,-7 -16,-4 -28,-9 -35,-15 -7,-6 -11,-14 -11,-23 0,-6 2,-12 5,-18 4,-6 9,-10 16,-13 7,-3 17,-5 30,-5 16,0 27,3 36,9 8,6 13,15 15,28l-35 2c-1,-5 -3,-9 -6,-12 -3,-3 -7,-4 -12,-4 -4,0 -8,1 -10,3 -2,2 -3,4 -3,7 0,2 1,4 3,5 2,2 6,3 13,4 16,4 28,7 35,11 7,4 12,8 16,13 3,5 5,11 5,18 0,8 -2,15 -6,22 -4,7 -10,12 -18,15 -8,3 -18,5 -29,5 -21,0 -35,-4 -43,-12 -8,-8 -12,-18 -14,-30z"/>
  <path class="fil12" d="M3609 2042l-13 -44 -13 44 27 0zm8 26l-43 0 -6 20 -38 0 46 -122 41 0 46 122 -39 0 -6 -20z"/>
  <polygon class="fil12" points="3736,1967 3851,1967 3851,1997 3812,1997 3812,2089 3775,2089 3775,1997 3736,1997 "/>
  <polygon class="fil12" points="3875,1967 3976,1967 3976,1993 3912,1993 3912,2012 3971,2012 3971,2037 3912,2037 3912,2061 3977,2061 3977,2089 3875,2089 "/>
  <path class="fil12" d="M4072 2042l-13 -44 -13 44 27 0zm8 26l-43 0 -6 20 -38 0 46 -122 41 0 46 122 -39 0 -6 -20z"/>
  <polygon class="fil12" points="4144,1967 4193,1967 4212,2041 4231,1967 4281,1967 4281,2089 4250,2089 4250,1996 4226,2089 4198,2089 4174,1996 4174,2089 4144,2089 "/>
 </g>
</svg>
