<?xml version="1.0" encoding="utf-8"?>
<!DOCTYPE svg PUBLIC "-//W3C//DTD SVG 1.1//EN" "http://www.w3.org/Graphics/SVG/1.1/DTD/svg11.dtd">
<svg version="1.1" xmlns="http://www.w3.org/2000/svg" xmlns:xlink="http://www.w3.org/1999/xlink" x="0px" y="0px" width="1291px"
	 height="1291px" viewBox="0 0 1291 1291" enable-background="new 0 0 1291 1291" xml:space="preserve">
<g id="svg2" >	
		<g id="layer2" >
		
			<path id="path2987" fill="#0C2E82" stroke="#969696" stroke-width="10" d="
			M1230.957,46.572c-189.078,85.939-609.932,307.645-793.52,442.366c-164.979,113.883-301.33,285.44-279.75,443.344
			c49.636,268.295,364.091,392.275,621.094,167.531c259.684-254.579,164.23-448.66,354.531-875.344
			c23.189-51.996,59.162-116.925,99.6-174.875l9.97-9.191l-0.3-0.345L1230.957,46.572z M1099.313,170.781
			c-9.048,22.056-57.488,127.171-93.469,235.75c-72.777,187.684-54.713,197.022-100.594,332.406
			c-17.379,68.162-92.778,281.543-192.75,315.344l17.813-464.969l125.313-277.719L1099.313,170.781z M454.5,552.563l120.688,97.5
			l-19.344,475.375c-160.91,38.604-242.436-8.561-297.75-135C200.056,832.096,273.39,698.99,454.5,552.563z"/>
		<path id="path3797" fill="none" stroke="#969696" stroke-width="12" d="M626.634,679.935
			l-52.123,26.594"/>
		<path id="path3799" fill="none" stroke="#969696" stroke-width="12" d="M622.476,767.935
			l-52.026,26.883"/>
		<path id="path3801" fill="none" stroke="#969696" stroke-width="12" d="M618.608,859.415
			l-51.349,25.724"/>
		<path id="path3803" fill="none" stroke="#969696" stroke-width="12" d="M614.449,963.371
			l-53.767,27.656"/>
		<path id="path3805" fill="none" stroke="#969696" stroke-width="12" d="M614.256,1063.845
			l-55.12,28.237"/>
		<path id="path3821" fill="#0C2E82" d="M57.248,744.436
			l27.851,5.415c-23.71,22.558-32.91,69.92,4.835,75.042c38.044,1.048,36.871-42.226,28.044-68.659l27.076,5.028
			c9.355,33.825,1.745,93.362-54.733,94.769C21.034,846.291,34.948,770.174,57.248,744.436z"/>
		<path id="path3823" fill="#0C2E82" d="M147.813,660.156
			c-8.547,0.034-17.418,3.163-25.375,10.406c-9.601,8.932-16.054,22.849-15.688,37.313c5.256,30.783,33.546,40.056,57.656,29.219
			c9.941-7.516,15.725-14.275,19.344-28.625C192.456,683.534,171.442,660.062,147.813,660.156z M136.906,685.094
			c12.495-0.655,25.581,9.745,28.844,16.594c1.023,6.341-1.743,13.813-9,15.594c-6.192,0.205-22.192-1.724-30.25-16.938
			c-0.702-5.257,1.528-13.002,7.938-14.969C135.262,685.229,136.073,685.138,136.906,685.094z"/>
		<path id="path3828" fill="#0C2E82" d="M188.241,532.493
			l22.597,17.157c-31.233,9.77-60.403,48.2-28.799,69.464c33.671,17.739,51.728-21.604,55.48-49.219l22.073,16.468
			c-6.543,34.479-39.661,84.537-90.957,60.859C110.773,607.889,156.867,545.739,188.241,532.493L188.241,532.493z"/>
		<path id="path3830" fill="#0C2E82" d="M292.181,493.056c-8.189-2.447-17.587-2.027-27.303,2.596
			c-11.779,5.763-21.992,17.208-25.839,31.156c-3.901,30.984,20.481,48.065,46.698,44.69c11.695-4.308,19.19-9.1,26.817-21.781
			C328.12,528.381,314.821,499.82,292.181,493.056z M274.508,513.756c12.148,2.998,21.653,16.748,22.788,24.248
			c-0.859,6.365-5.675,12.714-13.137,12.313c-5.985-1.601-20.737-8.089-24.034-24.986c0.853-5.233,5.235-11.999,11.938-12.021
			C272.896,513.408,273.698,513.556,274.508,513.756z"/>
		<path id="path3832" fill="#0C2E82" d="M338.125,399.781c-4.199-0.017-8.773,0.603-13.719,2
			l-47.344,36.656l66.75,83.438L367.344,503l-26-32.281c8.479-6.315,6.018-12.739,50.875,12.313l26.25-20.5
			c-33.064-15.496-38.869-21.878-52.5-22.438C372.049,419.012,360.8,399.873,338.125,399.781z M331.438,427.625
			c8.05-0.251,12.028,8.35,8,14.375l-12.844,10.813l-12.063-14.906l12.063-9.156C328.34,428.022,329.947,427.672,331.438,427.625z"
			/>
		<path id="path3837" fill="#0C2E82" d="M427.188,373.313c-4.047-0.045-7.948,0.764-10.969,1.906
			c-10.482,3.829-24.438,15.453-32.875,31.719l14.781,20.125l0.844-9.5c6.127-15.931,21.007-26.836,25.375-16.813l-11.438,13.938
			c-7.232,11.834-14.841,21.644-3.094,36.531c14.932,11.522,34.454,0.443,40.813-16.625c6.486,2.521,10.701,1,15.094-2.313
			c7.844-6.105,12.172-13.381,14.313-18.969l-9.656-14.094c-2.192,3.385-4.171,15.727-9.281,8.313l-22.063-30.969
			C435.414,374.248,431.234,373.358,427.188,373.313z M433.031,413.531l7.75,10.531c-1.943,2.777-3.386,6.462-6.5,8.406
			c-4.187,2.83-9.644-2.779-6.188-10.938L433.031,413.531z"/>
		<path id="path3842" fill="#0C2E82" d="M489.663,414.994
			l25.916-15.659l-22.702-35.01l39.387-24.617l22.702,35.557l25.71-16.411l-56.892-91.082l-25.71,16.685l22.154,34.463
			l-39.387,24.616l-22.154-35.01l-25.164,16.685L489.663,414.994z"/>
		<path id="path3844" fill="#0C2E82" d="M608.574,227.019
			l12.334,21.362c-27.533,3.2-44.761,10.774-43.044,20.516c0.645,3.657,10.446,4.203,26.061-0.303
			c26.696-4.032,41.62,2.895,47.045,25.164c1.642,15.636-5.47,33.05-34.463,44.857c-8.882,3.434-18.525,4.28-28.31,4.649
			l-13.424-23.251c11.497-0.537,23.566,1.214,34.075-3.28c13.907-6.377,16.032-13.113,12.494-16.166
			c-4.117-3.552-13.718-1.935-24.119,0.028c-33.942,6.331-47.171-9.241-48.139-29.129
			C550.715,248.935,573.086,232.088,608.574,227.019z"/>
	</g>
</g>
<g id="Layer_2">
	<g>
		<path fill="#0C2E82" d="M624.581,1223.141c-2.575-1.407-5.654-1.803-8.479-0.924c-5.455,1.697-8.396,7.812-6.72,13.202
			c1.677,5.39,7.6,8.746,13.088,7.039c2.76-0.858,5.051-2.995,6.393-5.55l1.051,3.377c-1.636,2.183-3.961,3.867-6.559,4.676
			c-6.917,2.151-14.509-1.647-16.67-8.597c-2.182-7.014,1.778-14.549,8.792-16.73c2.728-0.849,5.373-0.817,8.053,0.13
			L624.581,1223.141z"/>
		<path fill="#0C2E82" d="M630.926,1233.728c-1.554-4.429,0.694-9.218,5.122-10.771c4.428-1.555,9.176,0.78,10.729,5.208
			c1.555,4.429-0.748,9.165-5.144,10.708C637.237,1240.415,632.48,1238.155,630.926,1233.728z M633.482,1232.794
			c1.081,3.081,4.142,4.818,7.318,3.703c3.177-1.114,4.48-4.383,3.399-7.464c-1.07-3.049-4.141-4.817-7.318-3.703
			C633.704,1226.445,632.412,1229.746,633.482,1232.794z"/>
		<path fill="#0C2E82" d="M650.037,1220.227l0.063-0.024c0.305-1.546,1.258-2.836,2.776-3.435c1.739-0.687,3.683-0.394,5.085,0.845
			c0.237-1.995,1.684-3.517,3.486-4.228c3.796-1.498,5.969,1.228,7.204,4.359l3.569,9.046l-2.53,0.999l-3.407-8.636
			c-0.762-1.93-1.824-4.252-4.418-3.229c-2.91,1.148-2.115,4.089-1.229,6.334l3.108,7.877l-2.531,0.998l-3.332-8.445
			c-0.725-1.835-1.994-4.404-4.43-3.443c-2.974,1.174-2.104,4.303-1.218,6.549l3.033,7.687l-2.53,0.999l-5.867-14.867l2.531-0.998
			L650.037,1220.227z"/>
		<path fill="#0C2E82" d="M673.415,1210.768l0.062-0.027c0.234-1.559,1.128-2.891,2.618-3.558c1.706-0.765,3.661-0.56,5.118,0.614
			c0.146-2.004,1.523-3.589,3.292-4.381c3.725-1.668,6.018,0.956,7.395,4.028l3.976,8.877l-2.483,1.112l-3.795-8.474
			c-0.848-1.893-2.015-4.165-4.56-3.025c-2.855,1.279-1.929,4.181-0.941,6.384l3.461,7.729l-2.482,1.111l-3.712-8.286
			c-0.806-1.801-2.191-4.311-4.581-3.239c-2.917,1.307-1.907,4.394-0.92,6.598l3.378,7.541l-2.483,1.112l-6.533-14.587l2.483-1.112
			L673.415,1210.768z"/>
		<path fill="#0C2E82" d="M700.013,1206.399c1.195,2.406,2.497,4.342,5.451,2.875c2.955-1.467,2.2-3.675,1.006-6.08l-3.962-7.979
			l2.437-1.21l4.098,8.254c1.891,3.807,1.774,7.167-2.459,9.269c-4.233,2.103-6.98,0.163-8.87-3.644l-4.099-8.254l2.437-1.21
			L700.013,1206.399z"/>
		<path fill="#0C2E82" d="M712.615,1192.172l0.06-0.032c0.263-1.879,1.147-3.32,2.884-4.255c3.892-2.095,6.305,0.236,8.077,3.529
			l4.496,8.353l-2.396,1.289l-4.27-7.934c-1.225-2.275-2.5-4.214-5.284-2.716c-3.294,1.772-1.859,4.939-0.506,7.454l3.593,6.676
			l-2.395,1.289l-7.573-14.07l2.395-1.289L712.615,1192.172z"/>
		<path fill="#0C2E82" d="M725.345,1176.039c0.54,0.945,0.193,2.122-0.722,2.645s-2.104,0.223-2.645-0.722
			c-0.522-0.916-0.193-2.122,0.723-2.645C723.616,1174.795,724.823,1175.124,725.345,1176.039z M735.752,1195.43l-2.362,1.349
			l-7.925-13.877l2.362-1.35L735.752,1195.43z"/>
		<path fill="#0C2E82" d="M743.307,1191.006l-2.34,1.387l-6.864-11.583l-1.433,0.849l-1.283-2.164l1.434-0.85l-2.93-4.943
			l2.34-1.387l2.93,4.943l2.457-1.456l1.283,2.165l-2.457,1.456L743.307,1191.006z"/>
		<path fill="#0C2E82" d="M737.419,1175.986l2.681-1.677l10.857,6.723l-1.691-12.453l2.623-1.64l3.226,27.41l-2.623,1.64
			l-1.17-11.617L737.419,1175.986z"/>
		<path fill="#0C2E82" d="M776.218,1145.183c-2.884-0.536-5.933,0.046-8.344,1.76c-4.655,3.31-5.547,10.034-2.277,14.635
			c3.271,4.6,9.942,5.946,14.625,2.617c2.355-1.675,3.868-4.418,4.349-7.263l2.049,2.882c-0.876,2.583-2.561,4.907-4.777,6.483
			c-5.902,4.195-14.298,2.947-18.514-2.982c-4.255-5.985-2.837-14.377,3.148-18.632c2.327-1.654,4.851-2.447,7.692-2.382
			L776.218,1145.183z"/>
		<path fill="#0C2E82" d="M786.136,1152.806c-2.875-3.708-2.258-8.961,1.45-11.835c3.709-2.875,8.949-2.162,11.823,1.546
			c2.875,3.708,2.189,8.929-1.492,11.782C794.237,1157.151,789.01,1156.514,786.136,1152.806z M788.265,1151.112
			c1.999,2.58,5.451,3.26,8.111,1.197c2.66-2.062,2.862-5.574,0.863-8.153c-1.979-2.553-5.451-3.26-8.111-1.197
			C786.468,1145.021,786.285,1148.56,788.265,1151.112z"/>
		<path fill="#0C2E82" d="M809.475,1144.518l-2.106,1.72l-17.737-21.728l2.106-1.721L809.475,1144.518z"/>
		<path fill="#0C2E82" d="M815.572,1139.44l-2.082,1.751l-18.052-21.464l2.082-1.75L815.572,1139.44z"/>
		<path fill="#0C2E82" d="M830.641,1126.29l-2.036,1.803l-1.466-1.654l-0.051,0.045c0.129,2.247-0.686,4.148-2.365,5.636
			c-3.512,3.11-8.363,2.094-11.293-1.215c-3.02-3.411-3.448-8.254,0.141-11.432c1.629-1.442,3.781-1.985,5.9-1.592l0.051-0.045
			l-1.51-1.706l2.036-1.803L830.641,1126.29z M815.382,1128.903c2.073,2.342,5.408,3.339,7.953,1.085
			c2.622-2.321,2.126-5.651-0.016-8.068c-2.118-2.393-5.333-2.997-7.853-0.767C813.1,1123.25,813.399,1126.663,815.382,1128.903z"/>
		<path fill="#0C2E82" d="M815.277,1102.32l1.969-1.876l9.897,10.387l0.049-0.047c-0.237-2.122,0.511-4.244,2.086-5.745
			c3.446-3.283,8.26-2.47,11.379,0.804c3.072,3.224,3.675,8.145,0.278,11.381c-1.6,1.524-3.685,2.243-5.816,1.879l-0.049,0.047
			l1.524,1.601l-1.969,1.876L815.277,1102.32z M830.866,1114.937c2.158,2.265,5.527,3.139,7.988,0.794
			c2.535-2.416,1.918-5.725-0.31-8.063c-2.205-2.313-5.439-2.8-7.876-0.479C828.38,1109.37,828.803,1112.771,830.866,1114.937z"/>
		<path fill="#0C2E82" d="M842.26,1104.305c-3.352-3.282-3.455-8.571-0.173-11.923c3.283-3.353,8.572-3.36,11.925-0.077
			s3.384,8.548,0.124,11.876C850.877,1107.509,845.613,1107.588,842.26,1104.305z M844.139,1102.338
			c2.332,2.283,5.845,2.487,8.2,0.082c2.354-2.404,2.077-5.912-0.255-8.195c-2.308-2.261-5.844-2.487-8.199-0.083
			C841.531,1096.547,841.831,1100.078,844.139,1102.338z"/>
		<path fill="#0C2E82" d="M853.446,1083.632l0.047-0.05c-0.274-1.554-0.392-2.776,0.811-4.072c0.625-0.673,1.358-1.013,2.214-1.285
			l0.94,2.636c-0.645,0.144-1.148,0.187-1.634,0.71c-2.036,2.192,0.688,4.906,2.207,6.317l5.856,5.437l-1.852,1.993l-11.711-10.872
			l1.851-1.994L853.446,1083.632z"/>
		<path fill="#0C2E82" d="M879.404,1076.029l-1.797,2.041l-1.658-1.46l-0.045,0.051c0.405,2.214-0.166,4.201-1.648,5.885
			c-3.1,3.521-8.039,3.112-11.355,0.192c-3.419-3.01-4.443-7.761-1.276-11.358c1.438-1.633,3.505-2.438,5.657-2.311l0.045-0.051
			l-1.71-1.505l1.797-2.041L879.404,1076.029z M864.588,1080.512c2.348,2.066,5.779,2.643,8.025,0.092
			c2.313-2.628,1.409-5.87-1.015-8.004c-2.398-2.111-5.662-2.313-7.886,0.213C861.624,1075.186,862.343,1078.535,864.588,1080.512z"
			/>
		<path fill="#0C2E82" d="M884.391,1070.072l-1.75,2.083l-10.314-8.658l-1.071,1.275l-1.928-1.617l1.071-1.276l-4.401-3.695
			l1.749-2.084l4.402,3.695l1.837-2.188l1.927,1.618l-1.837,2.188L884.391,1070.072z"/>
		<path fill="#0C2E82" d="M873.071,1049.206c0.844,0.688,0.943,1.91,0.277,2.727c-0.666,0.817-1.883,0.965-2.727,0.277
			c-0.816-0.666-0.943-1.909-0.277-2.727C871.01,1048.667,872.254,1048.54,873.071,1049.206z M889.755,1063.555l-1.719,2.107
			l-12.386-10.098l1.719-2.107L889.755,1063.555z"/>
		<path fill="#0C2E82" d="M892.411,1051.819l-5.529-10.369l1.886-2.41l8.598,16.655l-18.256-4.31l1.906-2.438L892.411,1051.819z"/>
		<path fill="#0C2E82" d="M897.683,1041.408c2.397,1.731,5.564,1.452,7.404-1.035c1.375-1.858,1.144-3.89,0.24-5.869l2.44-1.069
			c1.386,2.928,1.161,5.976-0.78,8.599c-2.83,3.826-7.574,4.122-11.264,1.394c-3.798-2.811-5.304-7.35-2.331-11.367
			c3.053-4.126,8.086-3.785,11.75-0.736L897.683,1041.408z M901.586,1032.244c-2.08-1.074-4.735-0.628-6.151,1.285
			c-1.395,1.885-1.186,4.746,0.471,6.395L901.586,1032.244z"/>
		<path fill="#0C2E82" d="M920.721,1021.93l-1.594,2.37l-21.272-14.301l2.067-3.075c2.712-4.034,6.307-7.066,11.103-3.842
			c3.273,2.2,4.202,5.815,2.284,9.277l14.088-0.36l-1.953,2.906l-13.663,0.154l-0.398,0.593L920.721,1021.93z M909.294,1014.249
			l0.493-0.734c1.802-2.68,3.114-5.729-0.187-7.949c-3.498-2.352-5.563-0.012-7.479,2.838l-0.475,0.705L909.294,1014.249z"/>
		<path fill="#0C2E82" d="M937.047,996.776l-1.451,2.3l-1.869-1.18l-0.036,0.058c0.751,2.122,0.501,4.175-0.696,6.072
			c-2.504,3.968-7.446,4.346-11.184,1.987c-3.852-2.432-5.615-6.961-3.058-11.015c1.161-1.84,3.076-2.963,5.221-3.177l0.036-0.058
			l-1.926-1.216l1.451-2.3L937.047,996.776z M923.126,1003.548c2.645,1.669,6.126,1.694,7.94-1.18
			c1.868-2.961,0.462-6.02-2.27-7.743c-2.702-1.705-5.957-1.388-7.753,1.458C919.357,998.757,920.597,1001.951,923.126,1003.548z"/>
		<path fill="#0C2E82" d="M922.692,977.958c0.933,0.561,1.205,1.757,0.661,2.659c-0.543,0.903-1.728,1.223-2.659,0.661
			c-0.903-0.544-1.205-1.757-0.661-2.659C920.575,977.716,921.789,977.414,922.692,977.958z M941.24,989.796l-1.402,2.331
			l-13.69-8.24l1.402-2.331L941.24,989.796z"/>
		<path fill="#0C2E82" d="M933.293,975.665l0.034-0.06c-0.767-1.734-0.774-3.426,0.209-5.135c2.204-3.83,5.482-3.12,8.723-1.256
			l8.221,4.729l-1.355,2.357l-7.809-4.492c-2.239-1.288-4.345-2.265-5.921,0.476c-1.865,3.241,1.021,5.177,3.497,6.601l6.57,3.78
			l-1.356,2.357l-13.848-7.968l1.355-2.357L933.293,975.665z"/>
		<path fill="#0C2E82" d="M952.858,963.704l5.781,7.555l-1.539,1.25l-6.227-7.024L952.858,963.704z"/>
		<path fill="#0C2E82" d="M956.33,930.034l-9.306-4.65l1.277-2.555l22.93,11.459l-1.277,2.555l-11.252-5.623l-5.866,11.738
			l11.252,5.623l-1.276,2.555l-22.93-11.459l1.276-2.555l9.306,4.65L956.33,930.034z"/>
		<path fill="#0C2E82" d="M979.573,916.375l-1.145,2.469l-2.005-0.93l-0.029,0.062c1.019,2.009,1.034,4.077,0.091,6.113
			c-1.973,4.258-6.827,5.27-10.838,3.411c-4.134-1.916-6.467-6.183-4.451-10.533c0.915-1.975,2.67-3.335,4.771-3.823l0.028-0.063
			l-2.067-0.957l1.144-2.469L979.573,916.375z M966.635,924.884c2.839,1.315,6.295,0.894,7.725-2.192
			c1.473-3.178-0.316-6.03-3.247-7.389c-2.9-1.344-6.089-0.61-7.504,2.444C962.279,920.616,963.92,923.626,966.635,924.884z"/>
		<path fill="#0C2E82" d="M962.956,899.51c0.995,0.439,1.417,1.591,0.991,2.556c-0.425,0.964-1.56,1.431-2.556,0.991
			c-0.964-0.425-1.416-1.591-0.991-2.556C960.826,899.537,961.991,899.085,962.956,899.51z M982.853,908.914l-1.098,2.489
			l-14.623-6.447l1.098-2.489L982.853,908.914z"/>
		<path fill="#0C2E82" d="M986.13,901.334l-1.07,2.5l-25.781-11.04l1.07-2.5L986.13,901.334z"/>
		<path fill="#0C2E82" d="M993.94,872.416c1.073,2.863,1.955,6.126,0.795,9.104c-1.42,3.643-5.44,5.907-9.241,4.426
			c-3.992-1.555-4.77-5.179-5.572-8.922l-0.079-0.358c-1.909,0.496-4.03,1.166-5.994,0.4c-3.01-1.173-4.192-4.225-3.032-7.202
			c1.05-2.692,3.876-4.327,6.664-3.241c2.851,1.111,3.563,3.87,4.313,6.534l8.393-2.531l-2.087-3.914l2.337-1.315l2.363,4.424
			l6.807-2.019l-1.309,3.358L993.94,872.416z M979.197,873.64c-0.515-1.77-0.804-3.742-2.705-4.483
			c-1.457-0.567-2.908,0.253-3.451,1.647c-0.567,1.457,0.116,3.073,1.604,3.653c1.204,0.47,2.399,0.023,3.609-0.271l1.014-0.262
			L979.197,873.64z M982.727,877.314c0.531,2.287,1.149,5.009,3.588,5.96c2.25,0.876,5.074-0.285,5.95-2.534
			c0.938-2.408-0.116-5.227-0.938-7.518l-8.916,2.655L982.727,877.314z"/>
		<path fill="#0C2E82" d="M988.356,837.705c-2.005,0.386-3.369,1.209-4.081,3.266c-0.745,2.153,0.152,4.551,2.369,5.318
			c2.089,0.723,3.799-1.097,5.104-2.479l1.264-1.362c2.472-2.671,4.97-4.793,8.826-3.458c4.241,1.469,6.308,5.998,4.851,10.208
			c-1.346,3.889-4.854,5.913-8.88,5.383l0.173-2.892c2.597,0.503,5.277-0.691,6.179-3.295c0.9-2.603-0.269-5.67-3-6.616
			c-2.828-0.979-4.56,0.905-6.366,2.799l-1.154,1.256c-2.265,2.383-4.556,4.324-8.026,3.123c-3.76-1.302-5.069-5.317-3.823-8.916
			c0.935-2.7,3.106-4.503,5.929-4.965L988.356,837.705z"/>
		<path fill="#0C2E82" d="M997.645,830.697l0.021-0.065c-1.112-1.537-1.474-3.188-0.869-5.066c1.355-4.207,4.71-4.198,8.27-3.052
			l9.03,2.907l-0.834,2.59l-8.576-2.762c-2.46-0.792-4.724-1.307-5.692,1.703c-1.146,3.56,2.082,4.85,4.8,5.725l7.218,2.324
			l-0.834,2.589l-15.211-4.897l0.834-2.59L997.645,830.697z"/>
		<path fill="#0C2E82" d="M1007.568,819.693c-4.496-1.344-7.051-5.975-5.707-10.471c1.343-4.495,6.021-6.966,10.516-5.622
			c4.496,1.343,6.977,5.987,5.643,10.451C1016.685,818.515,1012.063,821.037,1007.568,819.693z M1008.314,817.077
			c3.127,0.935,6.33-0.521,7.294-3.746s-0.915-6.2-4.042-7.135c-3.096-0.925-6.331,0.521-7.295,3.747
			C1003.307,813.168,1005.219,816.152,1008.314,817.077z"/>
		<path fill="#0C2E82" d="M1017.423,795.919l-10.313-7.944l12.923-1.668l-9.185-7.427l0.812-2.985l14.425,12.126l-12.774,1.638
			l10.19,7.876l-18.561,3.096l0.812-2.985L1017.423,795.919z"/>
		<path fill="#0C2E82" d="M1004.151,761.433l24.848-14.862l-19.363-4.394l0.632-2.785l26.128,5.928l-24.815,14.87l19.265,4.371
			l-0.632,2.785L1004.151,761.433z"/>
		<path fill="#0C2E82" d="M1029.29,737.18c2.907,0.548,5.655-1.052,6.264-4.085c0.455-2.268-0.618-4.009-2.278-5.416l1.755-2.007
			c2.5,2.062,3.593,4.916,2.951,8.117c-0.937,4.668-5.105,6.953-9.606,6.051c-4.634-0.929-7.927-4.398-6.944-9.299
			c1.01-5.035,5.712-6.866,10.326-5.664L1029.29,737.18z M1028.928,727.223c-2.341-0.088-4.556,1.445-5.023,3.779
			c-0.461,2.301,0.945,4.802,3.146,5.59L1028.928,727.223z"/>
		<path fill="#0C2E82" d="M1040.191,719.926l-0.495,2.675l-13.239-2.453l-0.304,1.639l-2.475-0.459l0.304-1.638l-5.649-1.047
			l0.495-2.675l5.65,1.047l0.521-2.809l2.474,0.459l-0.521,2.808L1040.191,719.926z"/>
		<path fill="#0C2E82" d="M1036.945,708.714l-11.063-6.857l12.687-2.97l-9.89-6.457l0.504-3.052l15.579,10.601l-12.541,2.925
			l10.936,6.802l-18.15,4.961l0.505-3.052L1036.945,708.714z"/>
		<path fill="#0C2E82" d="M1037.18,689.783c-4.647-0.64-7.88-4.826-7.239-9.473c0.64-4.647,4.884-7.804,9.531-7.163
			c4.647,0.64,7.808,4.85,7.172,9.464C1046.008,687.225,1041.827,690.424,1037.18,689.783z M1037.518,687.085
			c3.232,0.445,6.175-1.483,6.634-4.817s-1.852-5.985-5.085-6.431c-3.199-0.44-6.175,1.482-6.634,4.816
			C1031.973,683.987,1034.319,686.644,1037.518,687.085z"/>
		<path fill="#0C2E82" d="M1033.917,666.382l0.008-0.067c-1.138-1.093-1.954-2.011-1.747-3.767c0.107-0.911,0.499-1.619,1.029-2.344
			l2.314,1.574c-0.436,0.496-0.817,0.828-0.9,1.537c-0.351,2.972,3.449,3.557,5.509,3.8l7.936,0.936l-0.318,2.701l-15.871-1.871
			l0.318-2.702L1033.917,666.382z"/>
		<path fill="#0C2E82" d="M1039.292,655.859l-5.322-6.364l0.354-3.621l6.103,7.465l9.93-7.194l-0.352,3.587l-7.868,5.688l0.642,0.78
			l6.531,0.639l-0.265,2.708l-27.921-2.732l0.265-2.707L1039.292,655.859z"/>
	</g>
</g>
</svg>
