<?xml version="1.0" encoding="utf-8"?>
<!-- Generator: Adobe Illustrator 15.0.0, SVG Export Plug-In . SVG Version: 6.00 Build 0)  -->
<!DOCTYPE svg PUBLIC "-//W3C//DTD SVG 1.1//EN" "http://www.w3.org/Graphics/SVG/1.1/DTD/svg11.dtd">
<svg version="1.1" id="Layer_1" xmlns="http://www.w3.org/2000/svg" xmlns:xlink="http://www.w3.org/1999/xlink" x="0px" y="0px"
	 width="1080px" height="1080px" viewBox="0 0 1080 1080" enable-background="new 0 0 1080 1080" xml:space="preserve">
<g>
	<g>
		<g>
			<defs>
				<path id="SVGID_1_" d="M160.628,540.59c-0.398,211.42,170.666,383.13,382.083,383.529
					c211.419,0.396,383.13-170.664,383.529-382.083c0.396-211.418-170.666-383.129-382.084-383.529
					c-0.258,0-0.479-0.001-0.737-0.001C332.357,158.526,161.027,329.43,160.628,540.59"/>
			</defs>
			<clipPath id="SVGID_2_">
				<use xlink:href="#SVGID_1_"  overflow="visible"/>
			</clipPath>
			<g clip-path="url(#SVGID_2_)">
				<g>
					<g>
						<g>
							<g>
								<g>
									<path fill="#3C2415" d="M918.564,745.092c-0.691,2.305-1.452,4.573-2.248,6.843c-0.211,0.604-0.354,1.034-0.445,1.306
										c-0.012,0.012-0.012,0.021-0.012,0.035c-0.537,1-1.285,2.012-1.766,2.813c-0.748,1.279-1.635,2.465-2.429,3.71
										c-0.013,0.011-0.013,0.023-0.023,0.035c-0.129,0.127-0.292,0.29-0.467,0.476c-1.479,1.561-2.856,3.188-4.353,4.73
										c-3.44,3.566-6.964,7.008-10.08,10.879c-4.48,5.592-7.557,11.28-11.034,17.456c-1.11,1.965-2.243,3.907-3.493,5.791
										c-0.035,0.058-0.059,0.116-0.104,0.163c-0.291,0.267-0.76,0.685-1.213,1.104c-0.571,0.387-1.106,0.743-1.397,0.905
										c-2.892,1.671-5.909,3.146-8.836,4.745c-20.256,11.07-42.231,32.729-42.127,57.379c-2.401,1.369-4.825,2.704-7.272,4.003
										c-14.883,7.901-29.521,15.255-42.79,25.778c-6.772,5.367-12.989,11.374-19.659,16.854
										c-0.388,0.325-0.771,0.662-1.166,0.988c0,0-0.015-0.001-0.015,0.011c-0.113,0.062-0.245,0.143-0.432,0.271
										c-1.689,1.08-3.275,2.264-4.979,3.332c0,0,0,0.012-0.012,0c-0.629,0.146-1.688,0.611-3.076,1.624
										c-9.088,3.267-18.547,6.063-27.079,10.661l-358.555-0.681c-5.27-2.067-10.739-3.723-16.339-4.094
										c-0.743-1.236-1.485-2.46-2.217-3.718c-5.28-9.01-11.376-17.94-20.575-23.351c-10.909-6.398-24.044-5.48-34.906,0.119
										c-15.389-13.71-31.969-26.196-45.037-42.221c-0.278-0.338-0.534-0.676-0.813-1.026L243.605,852
										c-0.023-0.058-0.325-0.466-0.929-1.259c-0.906-1.308-1.823-2.588-2.694-3.917c-1.962-2.984-3.668-5.98-5.106-9.242
										c-1.866-4.242-3.686-8.239-6.171-11.935c12.8,3.878,27.618,5.723,45.83,4.139c90.607-7.909,83.896-84.742,174.493-92.652
										c90.606-7.92,97.319,68.913,187.919,61.003c90.606-7.921,83.896-84.738,174.505-92.662
										C864.846,700.817,889.109,725.581,918.564,745.092"/>
									<path fill="#5865AC" d="M132.264,606.081c51.616,23.256,59.653,76.897,134.469,83.968
										c90.554,8.553,97.801-68.229,188.344-59.677c90.554,8.555,83.296,85.338,173.838,93.892
										c90.555,8.557,97.802-68.218,188.356-59.664c58.411,5.516,76.129,39.43,105.65,65.109
										c-1.465,4.688-2.626,9.472-3.997,14.186c-0.117,0.396-0.231,0.805-0.36,1.198c-29.454-19.512-53.722-44.272-107.11-39.614
										c-90.609,7.924-83.896,84.742-174.505,92.663c-90.6,7.909-97.312-68.924-187.918-61.003
										c-90.6,7.909-83.887,84.742-174.493,92.65c-18.213,1.584-33.031-0.26-45.831-4.138c-1.242-1.865-2.659-3.661-4.332-5.364
										c-5.695-5.809-14.209-10.179-22.441-9.88c-0.489,0.021-0.978,0.044-1.479,0.078c6.018-11.538,6.518-23.25,0.812-35.416
										c-3.827-8.169-15.013-9.602-22.192-5.816c-0.524,0.278-1.037,0.558-1.538,0.847c-0.328-5.481-1.016-10.958-2.624-16.197
										c-1.563-5.114-5.293-9.013-9.97-10.754c-0.189-4.881-0.494-9.771-1.521-14.521c-1.662-7.677-7.412-14.452-14.721-16.317
										c3.58-15.269,1.98-31.048-10.364-42.167c-1.79-1.619-3.918-2.813-6.187-3.586L132.264,606.081z"/>
									<path fill="#395529" d="M939.354,691.667c-0.313,1.094-0.992,2.815-1.121,3.176c-0.199,0.605-0.424,1.21-0.654,1.815
										c-5.073,10.688-10.833,21.111-14.452,32.434c-0.07,0.209-0.129,0.407-0.199,0.616
										c-29.522-25.681-47.237-59.596-105.651-65.108c-90.557-8.554-97.804,68.221-188.354,59.663
										c-90.543-8.553-83.284-85.337-173.839-93.89c-90.542-8.554-97.789,68.229-188.344,59.675
										c-74.816-7.066-82.853-60.711-134.469-83.966l0.851-450.86l813.222,1.534l-0.927,491.331
										c-4.44,8.2-6.297,17.115-6.304,27.07c-0.012,4.737,0.378,9.478,0.319,14.216
										C939.416,690.13,939.38,690.898,939.354,691.667"/>
								</g>
							</g>
						</g>
					</g>
				</g>
			</g>
		</g>
	</g>
</g>
<g>
	<g>
		<g>
			<g>
				<defs>
					<path id="SVGID_3_" d="M160.628,540.59c-0.398,211.42,170.666,383.13,382.083,383.529
						c211.419,0.396,383.13-170.664,383.529-382.083c0.396-211.418-170.666-383.129-382.084-383.529
						c-0.258,0-0.479-0.001-0.737-0.001C332.357,158.526,161.027,329.43,160.628,540.59"/>
				</defs>
				<clipPath id="SVGID_4_">
					<use xlink:href="#SVGID_3_"  overflow="visible"/>
				</clipPath>
				<path clip-path="url(#SVGID_4_)" fill="none" stroke="#FFFFFF" stroke-width="22.122" stroke-miterlimit="10" d="
					M228.708,825.651c12.8,3.878,27.618,5.723,45.83,4.139c90.609-7.909,83.896-84.742,174.494-92.651
					c90.605-7.921,97.318,68.912,187.918,61.003c90.606-7.921,83.896-84.739,174.505-92.663
					c53.393-4.658,77.655,20.104,107.109,39.614"/>
			</g>
		</g>
		<g>
			<g>
				<g>
					<defs>
						<path id="SVGID_5_" d="M160.628,540.59c-0.398,211.42,170.666,383.13,382.083,383.529
							c211.419,0.396,383.13-170.664,383.529-382.083c0.396-211.418-170.666-383.129-382.084-383.529
							c-0.258,0-0.479-0.001-0.737-0.001C332.357,158.526,161.027,329.43,160.628,540.59"/>
					</defs>
					<clipPath id="SVGID_6_">
						<use xlink:href="#SVGID_5_"  overflow="visible"/>
					</clipPath>
					<path clip-path="url(#SVGID_6_)" fill="none" stroke="#FFFFFF" stroke-width="22.122" stroke-miterlimit="10" d="
						M86.619,768.787c17.968-1.573,32.646,0.188,45.33,3.963c1.28,0.386,2.537,0.785,3.782,1.206"/>
				</g>
			</g>
			<g>
				<g>
					<g>
						<defs>
							<path id="SVGID_7_" d="M160.628,540.59c-0.398,211.42,170.666,383.13,382.083,383.529
								c211.419,0.396,383.13-170.664,383.529-382.083c0.396-211.418-170.666-383.129-382.084-383.529
								c-0.258,0-0.479-0.001-0.737-0.001C332.357,158.526,161.027,329.43,160.628,540.59"/>
						</defs>
						<clipPath id="SVGID_8_">
							<use xlink:href="#SVGID_7_"  overflow="visible"/>
						</clipPath>
						<path clip-path="url(#SVGID_8_)" fill="none" stroke="#FFFFFF" stroke-width="22.122" stroke-miterlimit="10" d="
							M961.408,752.368c0.163,0.047,0.313,0.104,0.465,0.149"/>
					</g>
				</g>
				<g>
					<g>
						<g>
							<defs>
								<path id="SVGID_9_" d="M160.628,540.59c-0.398,211.42,170.666,383.13,382.083,383.529
									c211.419,0.396,383.13-170.664,383.529-382.083c0.396-211.418-170.666-383.129-382.084-383.529
									c-0.258,0-0.479-0.001-0.737-0.001C332.357,158.526,161.027,329.43,160.628,540.59"/>
							</defs>
							<clipPath id="SVGID_10_">
								<use xlink:href="#SVGID_9_"  overflow="visible"/>
							</clipPath>
							<path clip-path="url(#SVGID_10_)" fill="none" stroke="#FFFFFF" stroke-width="22.122" stroke-miterlimit="10" d="
								M92.906,596.157c15.727,1.482,28.504,5.037,39.358,9.924c51.616,23.255,59.653,76.897,134.469,83.967
								c90.554,8.555,97.801-68.229,188.344-59.676c90.555,8.554,83.295,85.337,173.838,93.892
								c90.556,8.557,97.803-68.219,188.356-59.664c58.411,5.516,76.129,39.43,105.65,65.108"/>
						</g>
					</g>
					<g>
						<g>
							<g>
								<defs>
									<path id="SVGID_11_" d="M160.628,540.59c-0.398,211.42,170.666,383.13,382.083,383.529
										c211.419,0.396,383.13-170.664,383.529-382.083c0.396-211.418-170.666-383.129-382.084-383.529
										c-0.258,0-0.479-0.001-0.737-0.001C332.357,158.526,161.027,329.43,160.628,540.59"/>
								</defs>
								<clipPath id="SVGID_12_">
									<use xlink:href="#SVGID_11_"  overflow="visible"/>
								</clipPath>
								<polygon clip-path="url(#SVGID_12_)" fill="#FFFFFF" points="395.571,578.576 348.553,578.487 317.706,467.559 
									317.497,578.43 279.33,578.357 279.722,370.256 331.677,370.354 357.619,465.313 357.798,370.403 395.964,370.476 								
									"/>
							</g>
						</g>
						<g>
							<g>
								<g>
									<defs>
										<path id="SVGID_13_" d="M160.628,540.59c-0.398,211.42,170.666,383.13,382.083,383.529
											c211.419,0.396,383.13-170.664,383.529-382.083c0.396-211.418-170.666-383.129-382.084-383.529
											c-0.258,0-0.479-0.001-0.737-0.001C332.357,158.526,161.027,329.43,160.628,540.59"/>
									</defs>
									<clipPath id="SVGID_14_">
										<use xlink:href="#SVGID_13_"  overflow="visible"/>
									</clipPath>
									<path clip-path="url(#SVGID_14_)" fill="#FFFFFF" d="M410.803,578.605l0.396-208.104l57.045,0.108
										c12.417,0.023,23.469,3.406,33.159,10.148c9.687,6.743,14.52,17.079,14.492,31.01l-0.236,125.967
										c-0.024,12.965-4.581,23.043-13.664,30.229c-9.084,7.191-20.37,10.773-33.855,10.748L410.803,578.605z M469.647,540.974
										l0.251-132.761c0.013-7.263-4.333-10.904-13.041-10.92l-0.292,154.697C465.273,552.006,469.633,548.334,469.647,540.974"/>
								</g>
							</g>
							<g>
								<g>
									<g>
										<defs>
											<path id="SVGID_15_" d="M160.628,540.59c-0.398,211.42,170.666,383.13,382.083,383.529
												c211.419,0.396,383.13-170.664,383.529-382.083c0.396-211.418-170.666-383.129-382.084-383.529
												c-0.258,0-0.479-0.001-0.737-0.001C332.357,158.526,161.027,329.43,160.628,540.59"/>
										</defs>
										<clipPath id="SVGID_16_">
											<use xlink:href="#SVGID_15_"  overflow="visible"/>
										</clipPath>
										<polygon clip-path="url(#SVGID_16_)" fill="#FFFFFF" points="690.15,579.133 649.373,579.056 649.594,462.234 
											625.574,579.011 594.084,578.951 567.021,462.079 566.8,578.899 531.101,578.832 531.493,370.731 590.267,370.843 
											610.961,478.851 629.305,370.917 690.544,371.032 										"/>
									</g>
								</g>
								<g>
									<g>
										<g>
											<defs>
												<path id="SVGID_17_" d="M160.628,540.59c-0.398,211.42,170.666,383.13,382.083,383.529
													c211.419,0.396,383.13-170.664,383.529-382.083c0.396-211.418-170.666-383.129-382.084-383.529
													c-0.258,0-0.479-0.001-0.737-0.001C332.357,158.526,161.027,329.43,160.628,540.59"/>
											</defs>
											<clipPath id="SVGID_18_">
												<use xlink:href="#SVGID_17_"  overflow="visible"/>
											</clipPath>
											<path clip-path="url(#SVGID_18_)" fill="#FFFFFF" d="M806.496,443.955l-41.505-0.078l0.078-41.214
												c0.006-3.385-2.097-5.083-6.304-5.091c-4.399-0.008-6.604,1.681-6.61,5.063l-0.272,144.396
												c-0.006,3.388,2.191,5.084,6.594,5.092c4.207,0.009,6.313-1.68,6.32-5.067l0.097-51.372l41.508,0.078l-0.102,52.824
												c-0.02,9.868-4.873,17.769-14.559,23.7c-9.688,5.933-20.624,8.885-32.813,8.861c-35.218-0.065-52.8-12.578-52.753-37.539
												l0.253-133.945c0.053-26.993,17.685-40.455,52.899-40.389c31.537,0.059,47.285,12.377,47.237,36.95L806.496,443.955z"/>
										</g>
									</g>
								</g>
							</g>
						</g>
						<path fill="#3C2415" d="M88.958,650.207c5.338-1.402,10.996,2.032,12.439,7.523c1.453,5.53-1.806,11.228-7.26,12.657
							c-5.416,1.423-11.092-1.924-12.545-7.456C80.119,657.326,83.388,651.671,88.958,650.207"/>
						<polygon fill="#3C2415" points="102.036,530.825 102.361,542.586 72.723,565.763 102.979,564.927 103.304,576.688 
							53.963,578.053 53.652,566.809 84.015,543.094 53.02,543.949 52.695,532.188 						"/>
						<path fill="#3C2415" d="M106.604,476.38l-1.144,12.305l-10.792,2.564l-1.611,17.316l10.114,4.729l-1.055,11.347L54.68,501.652
							l1.213-13.042L106.604,476.38z M68.197,496.963l16.874,7.961l1.124-12.085L68.197,496.963z"/>
						<polygon fill="#3C2415" points="111.139,453.82 108.956,465.458 69.387,458.037 66.917,471.203 57.971,469.525 
							65.105,431.483 74.052,433.161 71.569,446.399 						"/>
						
							<rect x="87.099" y="398.18" transform="matrix(-0.2536 0.9673 -0.9673 -0.2536 525.6431 440.1183)" fill="#3C2415" width="11.839" height="49.357"/>
						<path fill="#3C2415" d="M91.666,360.609c6.222-3.738,13.087-4.019,22.069-0.784c8.981,3.234,14.092,7.827,16.503,14.673
							c1.838,5.381,1.579,11.343-0.728,17.749c-2.356,6.545-5.932,11.235-10.779,14.209c-6.437,3.896-13.112,4.088-22.512,0.703
							c-8.564-3.084-13.763-7.866-16.061-14.592c-1.812-5.451-1.603-11.274,0.728-17.749
							C83.243,368.273,86.793,363.652,91.666,360.609 M100.834,395.214c9.678,3.485,17.435,1.165,20.017-6.006
							c2.557-7.102-1.915-13.904-11.454-17.338c-9.469-3.41-17.251-1.021-19.808,6.081
							C87.058,384.984,91.504,391.855,100.834,395.214"/>
						<polygon fill="#3C2415" points="160.897,320.655 155.547,331.134 118.433,337.275 145.387,351.036 140.038,361.514 
							96.081,339.073 101.193,329.056 139.204,322.789 111.59,308.692 116.94,298.213 						"/>
						<path fill="#3C2415" d="M191.1,275.069l-6.919,10.242l-10.697-2.94l-9.735,14.412l6.595,9.01l-6.38,9.444l-30.546-42.963
							l7.332-10.855L191.1,275.069z M147.525,274.659l10.971,15.092l6.795-10.057L147.525,274.659z"/>
						<polygon fill="#3C2415" points="196.983,253.909 208.773,239.748 215.825,245.619 196.46,268.879 158.527,237.298 
							166.104,228.199 						"/>
						<path fill="#3C2415" d="M215.084,177.17c11.545-10.401,23.041-9.802,33.491,1.799c6.687,7.421,9.359,15.473,7.509,22.816
							c-1.043,3.928-4.225,8.687-8.459,12.501l-14.624,13.175l-33.036-36.67L215.084,177.17z M235.656,212.719l4.288-3.863
							c3.189-2.873,4.739-5.465,5.045-8.33c0.361-3.911-1.693-8.734-5.556-13.022c-4.161-4.618-8.711-6.794-12.621-6.16
							c-2.431,0.398-4.267,1.455-7.731,4.575l-4.178,3.764L235.656,212.719z"/>
						<path fill="#3C2415" d="M242.403,153.853l14.223-10.26c5.581-4.026,7.598-5.024,10.744-5.469
							c4.806-0.547,9.341,1.566,12.544,6.006c1.991,2.761,2.986,5.784,3.001,8.967c-0.014,2.383-0.429,3.959-1.834,7.071
							l22.603,10.337l-11.162,8.052l-19.427-9.983l-3.721,2.684l11.385,15.784l-9.482,6.839L242.403,153.853z M266.923,162.169
							l0.36-0.26c4.451-2.938,5.57-6.572,3.102-9.992c-2.337-3.241-4.987-3.246-9.548,0.044l-1.397,1.099l-2.1,1.515l6.882,9.542
							L266.923,162.169z"/>
						<path fill="#3C2415" d="M320.555,108.803c7.15,1.247,12.524,5.529,17.197,13.854c4.673,8.325,5.53,15.143,2.872,21.896
							c-2.134,5.271-6.233,9.609-12.169,12.942c-6.066,3.405-11.84,4.609-17.451,3.685c-7.416-1.268-12.588-5.493-17.478-14.205
							c-4.456-7.937-5.256-14.956-2.59-21.544c2.198-5.307,6.168-9.573,12.169-12.942
							C309.17,109.083,314.879,107.915,320.555,108.803 M304.833,140.966c5.035,8.969,12.417,12.293,19.064,8.563
							c6.579-3.696,7.65-11.765,2.688-20.605c-4.926-8.776-12.373-12.064-18.955-8.37
							C301.115,124.213,299.979,132.319,304.833,140.966"/>
						<path fill="#3C2415" d="M348.202,91.325l10.992,26.684c1.888,4.584,3.047,6.427,4.681,7.675
							c2.146,1.517,5.322,1.65,8.674,0.269c3.695-1.522,5.84-4.086,6.06-7.057c0.033-1.855-0.511-3.952-2.174-7.989l-10.988-26.684
							l10.944-4.509l11.021,26.752c2.816,6.842,3.418,10.436,2.416,14.61c-1.411,5.704-6.052,10.176-13.783,13.361
							c-8.416,3.466-15.331,3.194-20.455-0.698c-3.019-2.278-4.75-4.926-7.313-11.152l-11.021-26.753L348.202,91.325z"/>
						<path fill="#3C2415" d="M437.644,85.664l6.817,24.217c-8.289,3.871-14.377,6.277-18.864,7.54
							c-6.979,1.965-13.938,1.541-19.175-1.214c-5.488-2.836-9.369-8.432-11.695-16.694c-4.488-15.955,2.134-27.659,18.229-32.19
							c5.912-1.665,11.063-1.655,14.92,0.028c2.385,1.096,3.986,2.414,6.666,5.656l-8.637,7.275
							c-1.779-2.497-2.978-3.468-4.965-3.984c-1.919-0.536-4.125-0.453-6.265,0.149c-7.55,2.125-10.444,9.859-7.559,20.115
							c2.907,10.329,8.979,14.154,18.311,11.527c2.14-0.601,3.646-1.256,5.712-2.376l-2.283-8.12l-9.189,2.586l-2.465-8.761
							L437.644,85.664z"/>
						<polygon fill="#3C2415" points="496.388,102.321 484.686,104.13 481.622,84.311 463.265,87.148 466.329,106.968 
							454.628,108.777 447.086,59.996 458.788,58.188 461.818,77.787 480.175,74.949 477.145,55.35 488.846,53.541 						"/>
						<polygon fill="#3C2415" points="526.784,100.613 514.958,101.209 512.932,61 499.554,61.674 499.096,52.582 537.753,50.635 
							538.21,59.726 524.759,60.404 						"/>
						<polygon fill="#3C2415" points="620.689,106.159 609.289,104.901 612.756,73.496 596.859,103.529 587.961,102.547 
							578.85,69.754 575.384,101.159 563.984,99.9 569.398,50.844 584.328,52.492 594.338,85.235 611.468,55.488 626.104,57.103 
													"/>
						
							<rect x="634.748" y="61.145" transform="matrix(-0.9782 -0.2078 0.2078 -0.9782 1249.5166 302.9172)" fill="#3C2415" width="11.843" height="49.366"/>
						<polygon fill="#3C2415" points="672.83,119.603 661.465,116.285 672.746,77.645 659.89,73.892 662.44,65.154 699.589,76 
							697.038,84.736 684.111,80.962 						"/>
						
							<rect x="699.462" y="79.929" transform="matrix(-0.9375 -0.3479 0.3479 -0.9375 1330.2886 448.1113)" fill="#3C2415" width="11.838" height="49.353"/>
						<path fill="#3C2415" d="M761.667,127.588l-10.703,22.77c-8.8-2.501-14.977-4.668-19.195-6.651
							c-6.563-3.085-11.548-7.963-13.698-13.473c-2.291-5.737-1.563-12.508,2.091-20.276c7.051-15.002,19.72-19.514,34.854-12.399
							c5.562,2.612,9.448,5.994,11.265,9.79c1.084,2.39,1.432,4.434,1.335,8.641l-11.292-0.156c0.29-3.053,0.021-4.569-1.146-6.262
							c-1.1-1.662-2.819-3.044-4.83-3.988c-7.1-3.337-14.353,0.613-18.885,10.257c-4.564,9.71-2.479,16.579,6.295,20.703
							c2.009,0.944,3.577,1.435,5.873,1.942l3.589-7.634l-8.64-4.061l3.872-8.238L761.667,127.588z"/>
						<path fill="#3C2415" d="M795.999,179.028l-10.496-6.523l2.53-10.8l-14.771-9.18l-8.753,6.933l-9.679-6.016l41.768-32.156
							l11.124,6.915L795.999,179.028z M794.753,135.473l-14.663,11.536l10.311,6.406L794.753,135.473z"/>
						<polygon fill="#3C2415" points="812.932,192.208 803.469,185.091 827.666,152.917 816.961,144.867 822.432,137.592 
							853.363,160.855 847.893,168.129 837.129,160.034 						"/>
						
							<rect x="844.01" y="166.074" transform="matrix(-0.7527 -0.6584 0.6584 -0.7527 1364.0591 893.918)" fill="#3C2415" width="11.839" height="49.36"/>
						<path fill="#3C2415" d="M906.217,217.198c0.58,7.235-2.223,13.508-9.113,20.114c-6.893,6.606-13.275,9.141-20.479,8.255
							c-5.637-0.747-10.861-3.631-15.572-8.546c-4.813-5.022-7.425-10.311-7.932-15.974c-0.627-7.497,2.171-13.563,9.382-20.475
							c6.571-6.299,13.166-8.828,20.212-7.894c5.689,0.8,10.813,3.578,15.574,8.546C903.099,206.246,905.657,211.48,906.217,217.198
							 M871.145,210.019c-7.425,7.118-8.798,15.097-3.521,20.599c5.224,5.449,13.305,4.468,20.623-2.547
							c7.266-6.965,8.587-14.997,3.363-20.446C886.436,202.229,878.304,203.157,871.145,210.019"/>
						<polygon fill="#3C2415" points="911.236,296.931 904.22,287.486 915.188,251.498 890.893,269.546 883.876,260.101 
							923.498,230.668 930.205,239.697 918.951,276.542 943.84,258.052 950.857,267.497 						"/>
						<path fill="#3C2415" d="M971.57,336.825c2.46-2.013,3.403-3.248,3.883-5.073c0.539-2.19,0.179-4.834-1.105-7.336
							c-3.584-6.977-11.239-8.118-20.919-3.148c-9.018,4.633-12.287,11.387-8.733,18.299c1.281,2.501,3.39,4.332,5.747,5.034
							c1.69,0.544,3.083,0.496,5.987,0.001l0.523,11.545c-5.359,0.257-8.111-0.242-11.341-1.994
							c-3.463-1.883-6.411-5.193-8.947-10.13c-7.573-14.745-3.6-26.604,11.409-34.314c7.307-3.753,13.815-4.519,20.263-2.339
							c6.212,2.051,10.927,6.534,14.579,13.643c2.671,5.201,3.782,9.955,3.158,13.437c-0.564,2.951-1.862,5.282-5.59,9.526
							L971.57,336.825z"/>
						<polygon fill="#3C2415" points="988.22,387.532 980.065,390.654 973.396,373.239 962.755,377.313 970.428,397.354 
							961.858,400.636 949.952,369.537 996.047,351.889 1006.948,380.362 998.379,383.642 991.711,366.227 981.552,370.117 						
							"/>
						<polygon fill="#3C2415" points="976.084,452.706 973.137,441.314 996.838,412.098 967.537,419.68 964.59,408.289 
							1012.374,395.923 1015.191,406.813 990.903,436.718 1020.92,428.95 1023.868,440.34 						"/>
						<polygon fill="#3C2415" points="980.382,481.417 978.634,469.708 1018.444,463.766 1016.467,450.52 1025.468,449.176 
							1031.182,487.45 1022.181,488.792 1020.192,475.475 						"/>
						<polygon fill="#3C2415" points="1013.709,526.673 1004.994,527.222 1003.821,508.611 992.448,509.328 993.798,530.745 
							984.64,531.322 982.546,498.089 1031.806,494.985 1033.723,525.412 1024.564,525.989 1023.393,507.378 1012.536,508.063 
													"/>
						<path fill="#3C2415" d="M1034.056,540.786l-0.608,17.528c-0.239,6.878-0.688,9.084-2.267,11.843
							c-2.514,4.134-6.963,6.422-12.436,6.229c-3.402-0.116-6.401-1.186-8.925-3.125c-1.874-1.471-2.866-2.766-4.464-5.781
							l-22.024,11.522l0.48-13.756l19.797-9.233l0.158-4.585l-19.45-0.678l0.404-11.686L1034.056,540.786z M1012.454,555.064
							l-0.019,0.441c-0.404,5.316,1.779,8.432,5.994,8.577c3.995,0.139,5.623-1.952,5.818-7.573l-0.012-1.774l0.09-2.589
							l-11.759-0.41L1012.454,555.064z"/>
						<path fill="#3C2415" d="M992.582,670.492c-5.339-1.404-8.575-7.178-7.131-12.671c1.456-5.531,7.095-8.89,12.549-7.451
							c5.415,1.425,8.712,7.131,7.256,12.662C1003.78,668.642,998.151,671.958,992.582,670.492"/>
						<path fill="#3C2415" d="M163.271,747.47l-25.053,14.324c-4.304,2.461-5.984,3.847-7.011,5.628
							c-1.229,2.322-0.954,5.488,0.846,8.637c1.984,3.472,4.802,5.269,7.776,5.104c1.844-0.202,3.854-1.01,7.644-3.177
							l25.054-14.324l5.876,10.276l-25.117,14.359c-6.425,3.673-9.912,4.729-14.18,4.271c-5.837-0.669-10.868-4.696-15.019-11.956
							c-4.517-7.901-5.133-14.794-1.932-20.375c1.872-3.286,4.276-5.346,10.122-8.688l25.118-14.358L163.271,747.47z"/>
						<polygon fill="#3C2415" points="174.701,852.024 167.549,842.681 177.997,806.537 153.964,824.935 146.811,815.592 
							186.006,785.588 192.843,794.52 182.121,831.525 206.743,812.678 213.895,822.021 						"/>
						
							<rect x="203.671" y="828.647" transform="matrix(-0.6829 -0.7305 0.7305 -0.6829 -270.6138 1589.1923)" fill="#3C2415" width="11.839" height="49.359"/>
						<polygon fill="#3C2415" points="232.111,888.789 264.687,871.99 273.277,879.7 225.718,903.334 216.963,895.477 
							237.262,847.378 246.734,855.879 						"/>
						<polygon fill="#3C2415" points="292.181,917.808 287.085,924.896 271.943,914.016 265.293,923.27 282.719,935.792 
							277.364,943.243 250.324,923.813 279.127,883.732 303.883,901.523 298.529,908.975 283.386,898.092 277.038,906.925 						"/>
						<path fill="#3C2415" d="M314.435,908.447l15.243,8.673c5.981,3.401,7.729,4.821,9.44,7.498
							c2.495,4.145,2.459,9.146-0.249,13.905c-1.686,2.959-4.021,5.117-6.908,6.455c-2.173,0.979-3.779,1.257-7.193,1.271
							l-0.008,24.854l-11.963-6.808l1.005-21.815l-3.985-2.271l-9.625,16.915l-10.162-5.781L314.435,908.447z M317.063,934.205
							l0.389,0.22c4.521,2.828,8.292,2.334,10.378-1.332c1.976-3.473,0.879-5.885-4.009-8.665l-1.58-0.813l-2.252-1.28
							l-5.818,10.229L317.063,934.205z"/>
						<path fill="#3C2415" d="M373.466,953.09c0.302-4.226-1.171-6.963-4.563-8.438c-3.123-1.354-6.512-0.244-7.688,2.471
							c-0.679,1.563-0.415,3.37,0.727,4.833c0.992,1.238,0.992,1.238,5.771,5.653c3.377,3,5.647,5.761,6.831,8.05
							c1.627,3.127,1.587,7.305-0.035,11.036c-2.004,4.616-5.839,7.872-10.683,8.995c-4.154,1.02-8.397,0.387-13.827-1.975
							c-5.158-2.237-8.41-4.78-10.724-8.369c-1.987-3.042-2.531-5.134-2.5-9.477l11.442,0.212c-0.146,4.614,1.673,7.664,5.609,9.374
							c3.665,1.592,6.895,0.655,8.19-2.331c0.855-1.968,0.571-3.544-0.855-5.455c-1.11-1.53-1.11-1.53-5.348-5.146
							c-2.816-2.436-5.685-6.423-6.668-9.354c-1.019-2.858-0.767-6.786,0.53-9.771c1.621-3.731,4.881-6.594,8.727-7.826
							c4.01-1.244,8.71-0.735,14.004,1.563c8.481,3.688,12.15,8.428,11.973,15.526L373.466,953.09z"/>
						
							<rect x="389.425" y="949.102" transform="matrix(-0.9461 -0.3239 0.3239 -0.9461 454.0088 2023.1104)" fill="#3C2415" width="11.838" height="49.351"/>
						<polygon fill="#3C2415" points="427.376,1008.888 415.918,1005.902 426.07,966.946 413.109,963.568 415.404,954.761 
							452.856,964.521 450.563,973.328 437.528,969.932 						"/>
						<polygon fill="#3C2415" points="502.729,972.326 481.24,998.242 478.229,1018.591 466.518,1016.857 469.464,996.948 
							456.25,965.446 469.424,967.396 477.696,987.32 490.651,970.538 						"/>
						<path fill="#3C2415" d="M570.652,977.219c5.728,4.457,8.465,10.759,8.685,20.303c0.221,9.545-2.222,15.966-7.738,20.683
							c-4.354,3.653-10.011,5.561-16.813,5.718c-6.955,0.16-12.618-1.482-17.142-4.934c-5.95-4.602-8.535-10.76-8.769-20.743
							c-0.21-9.101,2.377-15.672,7.823-20.238c4.43-3.655,9.937-5.559,16.814-5.718
							C560.469,972.125,566.058,973.771,570.652,977.219 M541.681,998.242c0.237,10.283,5.196,16.682,12.815,16.506
							c7.546-0.175,12.277-6.797,12.043-16.932c-0.232-10.063-5.265-16.458-12.811-16.283
							C546.258,981.705,541.452,988.33,541.681,998.242"/>
						<polygon fill="#3C2415" points="621.512,987.979 622.689,996.631 605.02,999.036 607.694,1018.686 595.963,1020.282 
							589.307,971.379 619.367,967.287 620.604,976.379 602.275,978.874 603.842,990.385 						"/>
						<polygon fill="#3C2415" points="709.47,994.125 698.24,997.644 667.865,975.442 676.914,1004.325 665.688,1007.843 
							650.929,960.741 661.663,957.378 692.754,980.13 683.483,950.541 694.712,947.023 						"/>
						<polygon fill="#3C2415" points="741.837,948.207 745.398,956.18 728.372,963.785 733.02,974.19 752.613,965.438 
							756.356,973.815 725.951,987.396 705.82,942.331 733.657,929.896 737.4,938.274 720.373,945.88 724.811,955.813 						"/>
						<path fill="#3C2415" d="M745.042,924.208l18.741-10.899c8.188-4.762,14.951-3.729,18.783,2.858
							c2.418,4.157,2.301,8.077-0.393,12.724c3.281-0.539,4.842-0.505,6.913,0.263c2.55,0.999,4.694,2.919,6.294,5.67
							c2.68,4.604,2.9,9.694,0.647,13.919c-1.447,2.81-4.304,5.411-8.396,7.792l-17.784,10.342L745.042,924.208z M768.044,934.028
							c5.693-3.313,7.05-5.983,4.854-9.757c-1.975-3.394-4.396-3.438-9.643-0.389l-3.771,2.195l5.614,9.658L768.044,934.028z
							 M779.207,951.162c5.693-3.313,7.156-6.388,4.888-10.29c-1.377-2.366-3.597-3.387-6.144-2.762
							c-1.209,0.272-2.397,0.881-5.66,2.775l-3.134,1.823l6.212,10.682L779.207,951.162z"/>
						<path fill="#3C2415" d="M785.592,899.888l14.11-10.415c5.537-4.087,7.543-5.104,10.685-5.587
							c4.799-0.6,9.357,1.463,12.609,5.869c2.021,2.738,3.05,5.751,3.1,8.937c0.014,2.383-0.386,3.964-1.757,7.091l22.716,10.091
							l-11.074,8.174l-19.533-9.771L812.755,917l11.558,15.659l-9.404,6.941L785.592,899.888z M810.202,907.936l0.354-0.264
							c4.423-2.984,5.498-6.633,2.994-10.025c-2.373-3.217-5.021-3.189-9.548,0.147l-1.385,1.114l-2.084,1.538l6.987,9.467
							L810.202,907.936z"/>
						<path fill="#3C2415" d="M888.662,877.987l-9.051,8.415l-9.756-5.278l-12.737,11.841l4.391,10.266l-8.347,7.762l-20.057-48.747
							l9.593-8.918L888.662,877.987z M846.309,867.751l7.28,17.178l8.892-8.263L846.309,867.751z"/>
						<path fill="#3C2415" d="M885.07,827.07c-3.939-1.561-6.992-0.979-9.418,1.815c-2.231,2.57-2.189,6.138,0.046,8.075
							c1.285,1.115,3.089,1.407,4.826,0.761c1.479-0.575,1.479-0.575,7.127-3.809c3.876-2.318,7.188-3.654,9.729-4.096
							c3.472-0.612,7.444,0.681,10.521,3.349c3.8,3.299,5.753,7.934,5.365,12.892c-0.272,4.271-2.15,8.125-6.031,12.598
							c-3.688,4.247-7.09,6.585-11.205,7.715c-3.497,0.979-5.655,0.872-9.788-0.463l3.64-10.854
							c4.356,1.528,7.813,0.708,10.626-2.533c2.619-3.018,2.697-6.38,0.238-8.515c-1.62-1.406-3.208-1.608-5.461-0.82
							c-1.793,0.602-1.793,0.602-6.519,3.558c-3.166,1.954-7.831,3.488-10.921,3.551c-3.035,0.109-6.702-1.31-9.16-3.444
							c-3.07-2.668-4.819-6.636-4.846-10.674c0.02-4.194,1.916-8.525,5.699-12.886c6.063-6.984,11.688-9.061,18.405-6.754
							L885.07,827.07z"/>
						<polygon fill="#3C2415" points="911.244,806.514 903.229,781.199 910.957,770.168 919.597,797.817 952.827,796.432 
							944.036,808.979 916.336,810.081 934.396,822.735 927.688,832.313 887.262,803.987 893.972,794.411 						"/>
						<path fill="#3C2415" d="M979.26,747.94l-5.846,10.889l-10.939-1.841l-8.226,15.319l7.474,8.298l-5.391,10.041L921.594,751
							l6.196-11.541L979.26,747.94z M935.87,751.944l12.442,13.9l5.737-10.69L935.87,751.944z"/>
						<circle fill="none" stroke="#304B22" stroke-width="2" stroke-miterlimit="10" cx="543.436" cy="541.285" r="409.94"/>
					</g>
				</g>
			</g>
		</g>
	</g>
</g>
</svg>
