<svg xmlns="http://www.w3.org/2000/svg" width="127.36" height="120.96">
  <path fill="#fff" d="M0 0h127.36v120.96H0z"/>
  <path fill="#ffe292" d="M3.504 82.498v28.83H125.17l.174-34.707c-12.606-3.47-25.21-6.95-38.858-14.93-13.646-7.98-28.33-20.45-42.336-17.73-14 2.72-27.322 20.63-40.643 38.55z"/>
  <path fill="#866530" d="M18.022 109.853c3.067-1.62 5.018-4.17 5.018-6.562 0-1.05.466-2.26 1.036-2.68 1.43-1.04 1.596-3.67.335-5.32-.76-.99-2.5-1.66-6.32-2.43-6.22-1.24-7.7-.97-10.98 1.99-2.55 2.31-3.91 2.81-3.89 1.43.02-1.09 2.83-3.68 4.01-3.68 1.15 0 1.74-1.33 1.74-3.89 0-2.21.98-2.38 2.96-.51 1.87 1.76 7.28 2.51 7.28 1.01 0-2.81 2.85-1.58 3.53 1.53.49 2.22 1.05 2.32 3.4.58 1.67-1.23 1.91-1.24 4.62-.31 1.57.54 3.51 1.32 4.31 1.74 1.15.59 1.89.55 3.52-.19 2.1-.95 4.95-.92 4.95.06 0 .3 1.13.39 2.52.2 1.8-.24 3.32.06 5.32 1.02 1.55.75 3.14 1.36 3.54 1.36.4 0 1.45.72 2.33 1.6.88.88 1.36 1.6 1.07 1.6-1.28 0-5.93-1.97-7.66-3.25-1.44-1.07-2.4-1.31-3.96-.99-3.89.78-4.67 3.06-1.46 4.28.84.32 1.52 1.02 1.52 1.55 0 .54.56.98 1.24.98.69 0 1.42.29 1.64.64.56.9 5.03.8 5.96-.13.6-.59 1.34-.21 3.33 1.73 1.41 1.38 2.56 3.01 2.56 3.64 0 3.24 6.62 4.29 10.49 1.66 2.33-1.58 2.49-1.6 12.49-1.28 12.75.41 14.28.14 16-2.76.73-1.23 2.06-2.51 2.97-2.86 1.376-.52 1.93-.36 3.37.97 1.738 1.61 3.335 2.1 3.335 1.01 0-.32.82-.77 1.82-.99 1-.22 2.8-1.42 4-2.67s2.82-2.52 3.614-2.83c.79-.31 1.44-.96 1.44-1.46 0-1.53-1.69-2.4-5.4-2.78l-3.57-.38v2.03c0 2.87-2.335 5.826-4.605 5.826h-1.81l2.56-2.316c2.742-2.48 3.11-3.757 1.62-5.72-1.76-2.336-1.06-4.097 2.02-5.04 1.25-.386 1.42-.17 1.6 2l.2 2.43 3.133-.2c3.18-.21 8.7 1.024 8.7 1.94 0 .274-.72.5-1.6.5-1.34 0-1.6.3-1.6 1.84 0 2.16-.83 2.97-3.68 3.576-1.144.246-2.1.64-2.13.876-.14 1.21-.52 2.8-.7 2.93-.12.08-1.65.75-3.41 1.49-3.35 1.41-4.68 3.36-2.29 3.36.99 0 1.33.406 1.33 1.6 0 1.76-.93 2.15-1.51.64-.204-.53-.95-.96-1.65-.96s-1.572-.555-1.933-1.23c-1.06-1.98-4.16-2.31-6.42-.7-1.06.75-1.93 1.93-1.93 2.61 0 1.04-.462 1.23-2.99 1.23-1.95 0-3.42-.39-4.23-1.12-2.26-2.043-19.663-1.575-19.663.53 0 .327-2.52.58-5.6.57l-5.6-.02-1.74-3.86-1.746-3.86-2.85.43c-1.99.3-3.434.14-4.774-.53-1.06-.53-2.03-.85-2.167-.715-.56.554 3.143 7.29 4.32 7.87 1.09.534.933.635-1.04.67-2.19.04-2.34-.085-2.71-2.355-.216-1.32-.95-3.3-1.63-4.41-1.05-1.707-1.76-2.088-4.65-2.495-1.873-.263-4.77-.453-6.433-.422-1.667.03-3.196-.214-3.4-.546-.89-1.444-5.406-.43-5.44 1.224-.01.58-.44 1.61-.96 2.3-.51.68-.94 1.73-.94 2.33 0 .6-.43 1.25-.96 1.45-.52.21-.96.96-.96 1.67 0 1.13-.4 1.3-3.04 1.27l-3.04-.02 2.35-1.24zm88.42-5.8c-.82-.82-3.053-1-3.28-.266-.11.352.467.81 1.28 1.02 1.72.44 2.792.038 2-.754zm-62.922-3.708c0-.31-.43-.918-.955-1.354-.526-.43-1.257-1.91-1.625-3.27-.62-2.3-1.992-3.25-2.808-1.93-.19.31-1.465.74-2.835.96-1.37.22-3.718.95-5.216 1.62-2.39 1.08-2.58 1.3-1.52 1.85.66.35 3.45.77 6.2.94 2.75.17 5.33.64 5.73 1.04.86.87 3.04.99 3.04.18zm-16.64-4.558c0-.352.36-.653.8-.67.44-.015 1.664-.424 2.72-.907l1.92-.88-3.36-.05c-3.17-.05-3.36.037-3.36 1.547 0 .88.288 1.6.64 1.6.352 0 .64-.288.64-.64z"/>
  <path fill="#876631" d="M3.52 78.214l-.016 4.284c.747-.363 1.494-.727 2.466-.944.97-.217 2.167-.29 3.46-.345 1.295-.06 2.69-.1 4.245-.03 1.556.07 3.278.24 4.54.35 1.263.1 2.07.12 3.51.36 1.438.23 3.516.67 5.605 1.14 2.088.48 4.192.99 6.5 1.5 2.306.5 4.82.99 7.454 1.46 2.635.46 5.394.9 7.996 1.22 2.602.31 5.048.51 7.68.67 2.632.15 5.452.27 8.89.31 3.435.04 7.337 0 10.58-.14 3.245-.14 5.756-.37 8.71-.73 2.954-.37 6.43-.88 9.56-1.45 3.126-.58 5.947-1.24 8.765-2.01 2.82-.77 5.64-1.66 8.17-2.49 2.528-.83 4.77-1.61 6.526-2.26 1.76-.66 3.04-1.2 4.15-1.6 1.12-.4 2.08-.65 3.04-.91l-.21-5.07c-33.76-1.1-67.53-2.2-87.8-1.26-20.27.94-27.04 3.91-33.81 6.88v1.04z"/>
  <path fill="#71c067" d="M3.523 74.59v2.584c.815-.232 1.63-.464 2.52-.637.89-.174 1.856-.29 3.12-.348 1.264-.06 2.868-.06 4.818.03 1.95.09 4.27.29 6.25.54 1.98.25 3.62.56 5.69.95 2.07.39 4.6.88 7.24 1.42 2.65.54 5.43 1.14 8.79 1.72 3.36.58 7.3 1.14 10.97 1.53 3.67.39 7.07.62 10.47.72 3.4.09 6.8.06 10.64-.16 3.84-.21 8.13-.6 12.4-1.12 4.27-.52 8.52-1.18 12.55-2.05 4.03-.87 7.87-1.95 10.98-2.84 3.11-.89 5.51-1.58 7.5-2.31 2-.72 3.65-1.51 4.87-2.03 1.22-.52 2.03-.79 2.84-1.06l-.03-2.79c-17.69-6.21-35.37-12.42-55.63-11.46-20.26.97-43.11 9.12-65.96 17.28z"/>
  <path fill="#1a429a" d="M3.523 74.753c1.884-.655 3.77-1.31 5.858-2.02 2.09-.71 4.39-1.476 7.04-2.185 2.65-.71 5.66-1.366 8.24-1.748 2.58-.382 4.74-.492 6.92-.408 2.19.084 4.35.353 6.73.79 2.39.437 4.99 1.038 7.66 1.598 2.68.56 5.44 1.08 8.85 1.638 3.42.56 7.49 1.16 11.29 1.57 3.81.41 7.37.63 10.96.683 3.59.06 7.23-.05 11.1-.3 3.88-.24 8.01-.62 12.25-1.13 4.25-.5 8.62-1.13 12.07-1.71 3.45-.57 5.95-1.09 7.91-1.51 1.95-.42 3.35-.75 4.74-1.08V-3.57H3.28l.24 78.323z"/>
  <path fill="#fff" d="M8.684 60.006V17.404h8.52l6.555 18.352V17.404h8.84V59.68h-9.17l-5.57-18.19v18.19l-9.18.326zm28.97-42.743h10.43v42.29h-10.43zm44.608-.057H92.69v42.29H82.262z"/>
  <path fill="#e5a14c" d="M65.72 17.597c-3.257.02-12.456-.032-12.456-.032l-.213 42.27s11.33.308 14.56.23c3.23-.076 4.08-.23 5.01-.58.93-.347 1.93-.888 2.73-1.603s1.37-1.6 1.74-2.664c.37-1.062.52-2.3.6-7.668.08-5.368.08-14.866-.25-20.158-.33-5.292-.98-6.373-1.74-7.203-.75-.83-1.6-1.41-2.74-1.82-1.14-.41-2.57-.64-5.89-.76-.41-.02-.86-.03-1.32-.03zm-.195 7.073c.484.097.71.058 1.02.386.307.328.54.907.655 5 .116 4.094.116 11.715 0 15.86s-.45 5.52-.68 5.943c-.23.42-2.748.87-2.748.87s.012-.22.013-4.85c0-4.62.11-14.3.113-18.97.003-4.1.05-4.44.05-4.44s1.517.17 1.577.19z"/>
  <path fill="#fff" d="M120.497 29.777c0-2.356 0-4.713-.213-6.315-.212-1.603-.637-2.453-1.2-3.276s-1.265-1.62-2.212-2.22c-.946-.6-2.136-.998-3.52-1.275-1.386-.27-2.973-.43-4.48-.45-1.506-.02-2.934.1-4.23.37-1.293.27-2.45.7-3.584 1.35-1.133.65-2.237 1.53-2.953 2.67-.716 1.14-1.038 2.54-1.238 3.96-.2 1.42-.277 2.85-.257 4.31.02 1.47.135 2.98.475 4.28.34 1.31.906 2.42 1.887 3.58.982 1.16 2.378 2.37 3.795 3.32 1.417.95 2.854 1.65 3.958 2.36s1.876 1.45 2.494 2.19c.61.73 1.08 1.47 1.41 2.28.32.81.52 1.7.52 2.55 0 .85-.2 1.66-.43 2.34-.23.68-.5 1.22-1.1 1.37-.6.16-1.53-.07-2.01-.36-.48-.29-.53-.71-.62-1.4-.1-.69-.26-1.7-.29-2.82-.04-1.12.04-2.35.11-3.59h-9.73c-.08 1.94-.16 3.87.02 5.8.17 1.93.6 3.86 1.43 5.27.83 1.41 2.06 2.3 3.36 3.02s2.64 1.26 3.92 1.61c1.27.35 2.47.5 3.72.49 1.25-.013 2.72-.22 3.92-.49s2.2-.62 3.07-1.04c.87-.42 1.6-.922 2.22-1.46.62-.54 1.19-1.2 1.64-1.893.44-.693.79-1.47 1-2.51.21-1.04.29-2.36.31-3.552.02-1.19-.02-2.28-.12-3.38s-.25-2.22-.56-3.26c-.31-1.04-.77-2.01-1.3-2.913-.52-.91-1.1-1.76-1.76-2.53-.66-.77-1.39-1.47-2.28-2.106-.89-.64-1.93-1.22-2.8-1.76-.87-.54-1.56-1.044-2.28-1.526-.71-.48-1.45-.945-2.01-1.39-.56-.443-.95-.87-1.24-1.41-.29-.54-.49-1.2-.54-2.01-.06-.81.02-1.774.21-2.51.19-.732.5-1.234.85-1.523.34-.29.73-.365 1.12-.29.38.08.77.31 1.06.91.29.597.48 1.564.54 2.53.05.965-.02 1.93-.1 2.896l9.96-.114z"/>
  <text x="2.438" y="135.603" fill="#8f7449" stroke-width=".124" style="line-height:1.25;-inkscape-font-specification:bebas" transform="scale(1.13818 .8786)" font-size="4.962" font-family="bebas" letter-spacing="0" word-spacing="0">
    <tspan x="2.438" y="135.603">NATIONAL INTEGRATED DROUGHT INFORMATION STATION</tspan>
  </text>
</svg>
